<svg width="60" height="61" viewBox="0 0 60 61" fill="none" xmlns="http://www.w3.org/2000/svg">
<path d="M54.5089 52.5127C54.1597 50.4444 52.4597 48.8475 50.3763 48.6281L39.3503 47.4681C38.5528 47.3841 37.9518 46.7163 37.9518 45.915V40.2731C40.4722 38.0942 42.3611 35.0512 43.2748 31.8916C43.7823 31.8229 44.2745 31.6836 44.7248 31.4604C45.6273 31.012 46.8217 30.0389 47.3769 27.9402C48.3079 24.4277 47.623 21.9071 45.4975 21.0298C44.948 20.8028 44.3699 20.715 43.7861 20.7398C42.9619 13.2702 37.0262 7.45687 29.8447 7.45687C22.6633 7.45687 16.7278 13.2702 15.9034 20.7398C15.3195 20.715 14.7414 20.8028 14.1919 21.0298C12.0646 21.9075 11.3796 24.4279 12.3126 27.9402C12.8697 30.039 14.0622 31.012 14.9646 31.4604C15.4149 31.6836 15.9072 31.8248 16.4147 31.8916C17.3286 35.0511 19.2175 38.0942 21.7377 40.2731V45.915C21.7377 46.7163 21.1366 47.386 20.3372 47.4681L9.31326 48.6281C7.22789 48.8475 5.52789 50.4445 5.17876 52.5127L3.98439 59.595C3.89854 60.1063 4.24196 60.589 4.75329 60.6748C4.80671 60.6825 4.85822 60.6882 4.90974 60.6882C5.36001 60.6882 5.75688 60.3638 5.83317 59.9059L7.02563 52.8236C7.23551 51.5834 8.25434 50.6238 9.50595 50.494L20.5299 49.334C22.2852 49.1489 23.6093 47.6798 23.6093 45.915V41.6584C25.4753 42.8127 27.5855 43.5014 29.8427 43.5014C32.0979 43.5014 34.21 42.8107 36.0761 41.6564V45.915C36.0761 47.6799 37.4002 49.1509 39.1537 49.334L50.1796 50.4941C51.4312 50.6257 52.45 51.5835 52.6599 52.8237L53.8523 59.906C53.9306 60.3639 54.3274 60.6882 54.7758 60.6882C54.8273 60.6882 54.8807 60.6844 54.9322 60.6749C55.4436 60.589 55.787 60.1044 55.7011 59.595L54.5089 52.5127ZM43.7423 24.7349C43.8339 24.0175 43.8778 23.3078 43.8816 22.6228C43.9178 22.6209 43.956 22.6114 43.9922 22.6114C44.2651 22.6114 44.5322 22.6591 44.7783 22.7621C46.4287 23.4432 45.8754 26.2746 45.5625 27.4595C45.261 28.5985 44.6982 29.3789 43.8911 29.7795C43.8396 29.8043 43.7805 29.8158 43.7271 29.8368C43.832 29.1385 43.8873 28.4401 43.8873 27.7552C43.8873 27.1619 43.8453 26.5628 43.7595 25.9751C43.6965 25.5477 43.6927 25.1299 43.7423 24.7349ZM15.9587 29.8366C15.9053 29.8137 15.8461 29.8042 15.7946 29.7794C14.9876 29.3787 14.4247 28.5983 14.1213 27.4593C13.8065 26.2745 13.2551 23.445 14.9055 22.7619C15.1535 22.6589 15.4188 22.6112 15.6916 22.6112C15.7279 22.6112 15.7641 22.6208 15.8004 22.6227C15.8042 23.3076 15.85 24.0174 15.9415 24.7348C15.9911 25.1316 15.9854 25.5495 15.9244 25.9749C15.8404 26.5645 15.7965 27.1636 15.7965 27.755C15.7984 28.44 15.8538 29.1383 15.9587 29.8366ZM29.8429 41.6259C23.102 41.6259 17.676 34.0381 17.676 27.7554C17.676 27.2517 17.7123 26.7423 17.7848 26.2405C17.8687 25.6471 17.8764 25.0613 17.8058 24.4985C17.7199 23.825 17.676 23.1591 17.676 22.5219C17.676 15.2486 23.1348 9.3322 29.8429 9.3322C36.553 9.3322 42.0098 15.2486 42.0098 22.5219C42.0098 23.1591 41.9659 23.8231 41.8801 24.4985C41.8095 25.0613 41.8152 25.649 41.9011 26.2424C41.9717 26.7422 42.0098 27.2517 42.0098 27.7573C42.0098 34.0381 36.5819 41.6259 29.8429 41.6259ZM33.5615 34.4557C33.5615 35.8046 31.997 36.7834 29.8429 36.7834C27.6888 36.7834 26.1243 35.8046 26.1243 34.4557C26.1243 33.9387 26.5441 33.517 27.0631 33.517C27.561 33.517 27.9674 33.9043 27.9999 34.3947C28.1315 34.5626 28.784 34.9098 29.8429 34.9098C30.9018 34.9098 31.5543 34.5645 31.6879 34.3966C31.7184 33.9062 32.1267 33.5189 32.6247 33.5189C33.1418 33.5189 33.5615 33.9387 33.5615 34.4557ZM17.1267 4.8957C17.1267 4.31759 17.596 3.84825 18.1741 3.84825C18.7522 3.84825 19.2216 4.31761 19.2216 4.8957C19.2216 5.47379 18.7522 5.94315 18.1741 5.94315C17.5941 5.94315 17.1267 5.47379 17.1267 4.8957ZM7.36191 41.034C7.36191 40.4559 7.83127 39.9865 8.40936 39.9865C8.98745 39.9865 9.45681 40.4559 9.45681 41.034C9.45681 41.6121 8.98745 42.0814 8.40936 42.0814C7.83125 42.0795 7.36191 41.6121 7.36191 41.034ZM51.7332 40.4883C51.7332 39.9102 52.2026 39.4408 52.7807 39.4408C53.3588 39.4408 53.8281 39.9102 53.8281 40.4883C53.8281 41.0664 53.3588 41.5357 52.7807 41.5357C52.2007 41.5357 51.7332 41.0683 51.7332 40.4883ZM59.0788 22.4734C59.0788 22.9923 58.659 23.4121 58.1401 23.4121H56.6385V24.9136C56.6385 25.4326 56.2188 25.8524 55.6998 25.8524C55.1827 25.8524 54.7611 25.4326 54.7611 24.9136L54.7649 23.4121H53.2634C52.7463 23.4121 52.3246 22.9923 52.3246 22.4734C52.3246 21.9544 52.7444 21.5346 53.2634 21.5346H54.7649V20.0331C54.7649 19.5141 55.1846 19.0944 55.7036 19.0944C56.2207 19.0944 56.6423 19.5141 56.6423 20.0331V21.5346H58.1439C58.659 21.5366 59.0788 21.9563 59.0788 22.4734ZM39.6484 4.06722C39.6484 3.54826 40.0681 3.1285 40.5871 3.1285H42.0887L42.0867 1.62695C42.0867 1.10799 42.5065 0.688232 43.0255 0.688232C43.5425 0.688232 43.9642 1.10798 43.9642 1.62695V3.1285H45.4657C45.9828 3.1285 46.4045 3.54825 46.4045 4.06722C46.4045 4.58619 45.9847 5.00594 45.4657 5.00594H43.9642V6.50748C43.9642 7.02645 43.5444 7.44621 43.0255 7.44621C42.5084 7.44621 42.0867 7.02646 42.0867 6.50748V5.00404H40.5852C40.0681 5.00404 39.6484 4.58429 39.6484 4.06722ZM4.18709 24.9746C3.66813 24.9746 3.24837 24.5549 3.24837 24.0359V22.5344L1.74683 22.5363C1.22787 22.5363 0.808105 22.1165 0.808105 21.5976C0.808105 21.0786 1.22786 20.6588 1.74683 20.6588H3.24837V19.1592C3.24837 18.6402 3.66812 18.2205 4.18709 18.2205C4.70606 18.2205 5.12581 18.6402 5.12581 19.1592V20.6607H6.62736C7.14632 20.6607 7.56608 21.0805 7.56608 21.5995C7.56608 22.1184 7.14633 22.5382 6.62736 22.5382H5.12581V24.0397C5.12391 24.5549 4.70416 24.9746 4.18709 24.9746Z" fill="#F7B441"/>
</svg>
