<svg width="24" height="25" viewBox="0 0 24 25" fill="none" xmlns="http://www.w3.org/2000/svg">
<path d="M9 12.7125L11 14.7125L15.5 10.2125M17.9012 5.71103C18.1071 6.20906 18.5024 6.60492 19.0001 6.8116L20.7452 7.5345C21.2433 7.74081 21.639 8.13652 21.8453 8.63458C22.0516 9.13265 22.0516 9.69227 21.8453 10.1903L21.1229 11.9343C20.9165 12.4326 20.9162 12.9928 21.1236 13.4908L21.8447 15.2343C21.947 15.481 21.9996 15.7454 21.9997 16.0125C21.9997 16.2795 21.9471 16.544 21.8449 16.7907C21.7427 17.0374 21.5929 17.2616 21.4041 17.4504C21.2152 17.6392 20.991 17.7889 20.7443 17.891L19.0004 18.6134C18.5023 18.8193 18.1065 19.2146 17.8998 19.7123L17.177 21.4576C16.9707 21.9556 16.575 22.3513 16.0769 22.5576C15.5789 22.7639 15.0193 22.7639 14.5212 22.5576L12.7773 21.8352C12.2792 21.6295 11.7198 21.6299 11.2221 21.8364L9.47689 22.5583C8.97912 22.7641 8.42001 22.7639 7.92237 22.5578C7.42473 22.3517 7.02925 21.9564 6.82281 21.4589L6.09972 19.7131C5.8938 19.2151 5.49855 18.8192 5.00085 18.6126L3.25566 17.8896C2.75783 17.6834 2.36226 17.288 2.15588 16.7902C1.94951 16.2924 1.94923 15.7331 2.1551 15.2351L2.87746 13.4911C3.08325 12.993 3.08283 12.4336 2.8763 11.9358L2.15497 10.1893C2.0527 9.94263 2.00004 9.6782 2 9.41116C1.99996 9.14411 2.05253 8.87968 2.15472 8.63296C2.25691 8.38624 2.40671 8.16208 2.59557 7.97328C2.78442 7.78448 3.00862 7.63474 3.25537 7.53263L4.9993 6.81024C5.49687 6.6045 5.89249 6.20973 6.0993 5.71258L6.82218 3.96733C7.02848 3.46927 7.42418 3.07356 7.92222 2.86725C8.42027 2.66095 8.97987 2.66095 9.47792 2.86725L11.2218 3.58964C11.7199 3.79544 12.2793 3.79502 12.7771 3.58847L14.523 2.86837C15.021 2.66218 15.5804 2.66223 16.0784 2.86849C16.5763 3.07476 16.972 3.47035 17.1783 3.96829L17.9014 5.71406L17.9012 5.71103Z" stroke="#76B228" stroke-width="2" stroke-linecap="round" stroke-linejoin="round"/>
</svg>
