<svg width="17" height="17" viewBox="0 0 17 17" fill="none" xmlns="http://www.w3.org/2000/svg">
<path d="M15.1341 12.1334L10.7056 8.13338M6.89606 8.13338L2.46751 12.1334M2.13416 4.80005L7.57743 8.61034C8.01821 8.91889 8.23861 9.07316 8.47833 9.13292C8.69008 9.1857 8.91156 9.1857 9.12331 9.13292C9.36304 9.07316 9.58343 8.91889 10.0242 8.61034L15.4675 4.80005M5.33416 13.4667H12.2675C13.3876 13.4667 13.9476 13.4667 14.3755 13.2487C14.7518 13.057 15.0578 12.751 15.2495 12.3747C15.4675 11.9469 15.4675 11.3868 15.4675 10.2667V6.00005C15.4675 4.87994 15.4675 4.31989 15.2495 3.89207C15.0578 3.51574 14.7518 3.20978 14.3755 3.01804C13.9476 2.80005 13.3876 2.80005 12.2675 2.80005H5.33416C4.21405 2.80005 3.654 2.80005 3.22617 3.01804C2.84985 3.20978 2.54389 3.51574 2.35214 3.89207C2.13416 4.31989 2.13416 4.87994 2.13416 6.00005V10.2667C2.13416 11.3868 2.13416 11.9469 2.35214 12.3747C2.54389 12.751 2.84985 13.057 3.22617 13.2487C3.654 13.4667 4.21405 13.4667 5.33416 13.4667Z" stroke="#F7F0E7" stroke-linecap="round" stroke-linejoin="round"/>
</svg>
