<svg width="61" height="61" viewBox="0 0 61 61" fill="none" xmlns="http://www.w3.org/2000/svg">
<path d="M46.9132 43.2165H51.8407C52.3314 43.2165 52.7233 42.8265 52.7233 42.334C52.7233 41.8432 52.3333 41.4514 51.8407 41.4514H46.9132C46.4225 41.4514 46.0306 41.8414 46.0306 42.334C46.0306 42.8247 46.4316 43.2165 46.9132 43.2165Z" fill="#17616E"/>
<path d="M46.9132 54.468H51.8407C52.3314 54.468 52.7233 54.078 52.7233 53.5854C52.7233 53.0947 52.3333 52.7029 51.8407 52.7029H46.9132C46.4225 52.7029 46.0306 53.0929 46.0306 53.5854C46.0306 54.078 46.4316 54.468 46.9132 54.468Z" fill="#17616E"/>
<path d="M56.8587 25.5887C58.4132 25.5887 59.6767 24.3161 59.6767 22.7615L59.6785 8.5781C59.6785 7.02354 58.4151 5.75098 56.8605 5.75098H37.2499C35.6953 5.75098 34.4319 7.02354 34.4319 8.5781V22.7597C34.4319 24.3142 35.6953 25.5868 37.2499 25.5868H42.9958V29.2599L31.5682 29.2617L31.1781 24.2887C30.9969 22.0164 29.0688 20.2256 26.7873 20.2256H19.5601C17.2786 20.2256 15.3505 22.0072 15.1692 24.2887L14.7792 29.2617H4.17748C2.7236 29.2617 1.53162 30.4427 1.53162 31.9076V57.1174C1.53162 58.5713 2.71263 59.7633 4.17748 59.7633L7.3324 59.7614C8.78627 59.7614 9.97826 58.5804 9.97826 57.1156V37.6971H14.1238L14.0414 38.706C13.9865 39.4421 14.241 40.169 14.7317 40.7055C15.2316 41.242 15.9402 41.5515 16.669 41.5515H22.2865V43.6883H15.4676C14.2957 43.6883 13.3307 44.6423 13.3307 45.8252C13.3307 47.7697 14.9128 49.3518 16.8573 49.3518H22.2297V53.3068L17.275 58.2615C16.9289 58.6076 16.9289 59.1624 17.275 59.5066C17.621 59.8527 18.1759 59.8527 18.5201 59.5066L22.2298 55.7969L22.2316 58.8694C22.2316 59.3601 22.6216 59.752 23.1142 59.752C23.6049 59.752 23.9968 59.3619 23.9968 58.8694V55.7969L27.7065 59.4974C27.8786 59.6695 28.1057 59.7519 28.3254 59.7519C28.5433 59.7519 28.7795 59.6695 28.9534 59.4974C29.2995 59.1514 29.2995 58.5965 28.9534 58.2523L23.9987 53.3066V49.3423H29.3711C31.3156 49.3423 32.8977 47.7603 32.8977 45.8157C32.8977 44.6439 31.9437 43.6789 30.7608 43.6789H24.0591V41.5421H29.6766C30.4127 41.5421 31.1213 41.2326 31.6138 40.6961C32.1137 40.1596 32.3682 39.4235 32.3042 38.6966L32.2218 37.6877H39.696V57.0968C39.696 58.5506 40.877 59.7426 42.3419 59.7426H57.0325C58.4864 59.7426 59.6783 58.5616 59.6783 57.0968V31.8958C59.6783 30.442 58.4973 29.25 57.0325 29.25H51.1051V25.5769L56.8581 25.5787L56.8587 25.5887ZM31.1323 45.8237C31.1323 46.7959 30.3412 47.587 29.369 47.587L16.8777 47.5888C15.9054 47.5888 15.1144 46.7978 15.1144 45.8255C15.1144 45.6168 15.2774 45.452 15.488 45.452H30.7701C30.9697 45.452 31.1323 45.6149 31.1323 45.8237ZM36.1859 22.7616V8.5782C36.1859 7.98677 36.6583 7.51437 37.2405 7.51437H56.8493C57.4316 7.51437 57.904 7.99591 57.904 8.5782V22.7598C57.904 23.3512 57.4316 23.8236 56.8493 23.8236H50.2226L43.878 23.8254H37.2513C36.669 23.8254 36.1859 23.3421 36.1859 22.7616ZM8.21461 57.1158C8.21461 57.5974 7.8246 57.9984 7.33205 57.9984L4.17713 57.9966C3.69558 57.9966 3.29456 57.6066 3.29456 57.114L3.29639 37.6975H8.21452L8.21461 57.1158ZM9.09534 35.934H3.29644V31.8983C3.29644 31.4168 3.68645 31.0158 4.179 31.0158H14.6527L14.2701 35.9339L9.09534 35.934ZM30.3227 39.5155C30.1506 39.6968 29.9235 39.7975 29.6763 39.7975H16.676C16.4307 39.7975 16.1945 39.6968 16.0297 39.5155C15.8575 39.3342 15.7751 39.098 15.8026 38.8526L15.9564 36.9245C15.9564 36.9154 15.9656 36.9062 15.9656 36.8879L16.4838 30.2157V30.1974L16.9379 24.4332C17.0477 23.069 18.2013 21.9961 19.5746 21.9961H26.8018C28.1751 21.9961 29.3286 23.0691 29.4385 24.4332L29.8926 30.2063V30.2155L30.4108 36.8877C30.4108 36.8968 30.42 36.906 30.42 36.9151L30.5738 38.8524C30.5774 39.0959 30.4948 39.3342 30.3227 39.5155ZM57.9128 46.9607H41.4588V37.6972H57.9128V46.9607ZM57.9128 57.1157C57.9128 57.5972 57.5228 57.9982 57.0303 57.9982L42.3326 57.9964C41.8511 57.9964 41.4501 57.6064 41.4501 57.1138V48.7312H57.9041V57.1157L57.9128 57.1157ZM57.9128 31.9058V35.9415L40.5766 35.9433H32.095L31.7123 31.0252H57.0323C57.5139 31.0252 57.9128 31.4151 57.9128 31.9058ZM49.3417 29.2618H44.7605V25.5887H49.3417V29.2618Z" fill="#17616E"/>
<path d="M9.68602 17.9148C14.1776 17.9148 17.8324 14.26 17.8324 9.76835C17.8324 5.27679 14.1776 1.62195 9.68602 1.62195C5.19441 1.62195 1.53961 5.27675 1.53961 9.76835C1.53961 14.2617 5.19441 17.9148 9.68602 17.9148ZM9.68602 3.37976C13.2035 3.37976 16.0765 6.24354 16.0765 9.77023C16.0765 13.2969 13.2127 16.1607 9.68602 16.1607C6.16856 16.1607 3.29555 13.2969 3.29555 9.77023C3.29555 6.24354 6.15933 3.37976 9.68602 3.37976Z" fill="#17616E"/>
<path d="M9.68603 11.1966H12.0316C12.5223 11.1966 12.9142 10.8066 12.9142 10.3141C12.9142 9.82332 12.5242 9.43149 12.0316 9.43149H10.5686L10.5668 6.22534C10.5668 5.7346 10.1767 5.34277 9.6842 5.34277C9.19346 5.34277 8.80164 5.73279 8.80164 6.22534V10.3251C8.80347 10.8066 9.19531 11.1966 9.68603 11.1966Z" fill="#17616E"/>
</svg>
