<svg width="61" height="61" viewBox="0 0 61 61" fill="none" xmlns="http://www.w3.org/2000/svg">
<path d="M14.9108 22.7523H9.01111C7.47488 22.7523 6.22974 23.9974 6.22974 25.5337V31.4334C6.22974 32.9696 7.47483 34.2148 9.01111 34.2148H14.9108C16.447 34.2148 17.6922 32.9697 17.6922 31.4334V25.5337C17.6922 23.9975 16.4379 22.7523 14.9108 22.7523ZM15.9289 31.4336C15.9289 31.9975 15.4748 32.4516 14.9108 32.4516H9.01111C8.44716 32.4516 7.99303 31.9975 7.99303 31.4336V25.5339C7.99303 24.9699 8.44713 24.5158 9.01111 24.5158H14.9108C15.4748 24.5158 15.9289 24.9699 15.9289 25.5339V31.4336Z" fill="#E56B45"/>
<path d="M29.5373 22.7523H23.6376C22.1013 22.7523 20.8562 23.9974 20.8562 25.5337V31.4334C20.8562 32.9696 22.1013 34.2148 23.6376 34.2148H29.5373C31.0735 34.2148 32.3186 32.9697 32.3186 31.4334V25.5337C32.3205 23.9975 31.0735 22.7523 29.5373 22.7523ZM30.5553 31.4336C30.5553 31.9975 30.1012 32.4516 29.5373 32.4516H23.6376C23.0736 32.4516 22.6195 31.9975 22.6195 31.4336V25.5339C22.6195 24.9699 23.0736 24.5158 23.6376 24.5158H29.5373C30.1012 24.5158 30.5553 24.9699 30.5553 25.5339V31.4336Z" fill="#E56B45"/>
<path d="M44.1743 34.2146C45.7106 34.2146 46.9557 32.9695 46.9557 31.4333V25.5336C46.9557 23.9973 45.7106 22.7522 44.1743 22.7522H38.2747C36.7384 22.7522 35.4933 23.9973 35.4933 25.5336V31.4333C35.4933 32.9695 36.7384 34.2146 38.2747 34.2146H44.1743ZM37.2547 31.4333V25.5336C37.2547 24.9696 37.7088 24.5155 38.2727 24.5155H44.1724C44.7364 24.5155 45.1905 24.9696 45.1905 25.5336V31.4333C45.1905 31.9972 44.7364 32.4513 44.1724 32.4513H38.2727C37.7106 32.4513 37.2547 31.9881 37.2547 31.4333Z" fill="#E56B45"/>
<path d="M14.9108 37.1241H9.01111C7.47488 37.1241 6.22974 38.3692 6.22974 39.9055V45.8052C6.22974 47.3414 7.47483 48.5866 9.01111 48.5866H14.9108C16.447 48.5866 17.6922 47.3415 17.6922 45.8052V39.9055C17.6922 38.3693 16.4379 37.1241 14.9108 37.1241ZM15.9289 45.8068C15.9289 46.3708 15.4748 46.8249 14.9108 46.8249H9.01111C8.44716 46.8249 7.99303 46.3708 7.99303 45.8068V39.9071C7.99303 39.3432 8.44713 38.889 9.01111 38.889H14.9108C15.4748 38.889 15.9289 39.3431 15.9289 39.9071V45.8068Z" fill="#E56B45"/>
<path d="M29.5373 37.1241H23.6376C22.1013 37.1241 20.8562 38.3692 20.8562 39.9055V45.8052C20.8562 47.3414 22.1013 48.5866 23.6376 48.5866H29.5373C31.0735 48.5866 32.3186 47.3415 32.3186 45.8052V39.9055C32.3205 38.3693 31.0735 37.1241 29.5373 37.1241ZM30.5553 45.8068C30.5553 46.3708 30.1012 46.8249 29.5373 46.8249H23.6376C23.0736 46.8249 22.6195 46.3708 22.6195 45.8068V39.9071C22.6195 39.3432 23.0736 38.889 23.6376 38.889H29.5373C30.1012 38.889 30.5553 39.3431 30.5553 39.9071V45.8068Z" fill="#E56B45"/>
<path d="M57.4204 54.8805C57.4204 54.8713 57.4203 54.8713 57.4295 54.8622C58.7662 52.9524 59.4748 50.7075 59.4748 48.3526C59.4748 43.517 56.3748 39.1792 51.8651 37.5897L51.8669 19.1818V19.1727V12.4822C51.8669 9.99199 49.84 7.97233 47.3571 7.97233H45.266C45.1763 4.38161 43.1401 1.59827 40.5584 1.59827C37.9857 1.59827 35.9496 4.38147 35.8488 7.97233H31.3041C31.2034 4.38161 29.1764 1.59827 26.5946 1.59827C24.0128 1.59827 21.9859 4.37964 21.8851 7.97045H17.3404C17.2305 4.38161 15.2036 1.59827 12.622 1.59827C10.0402 1.59827 8.01323 4.38147 7.91245 7.97233H5.8214C3.33117 7.97233 1.30237 9.9993 1.30237 12.4895V49.0614C1.30237 51.5425 3.32934 53.5622 5.81226 53.5622H37.894C38.121 54.0071 38.3664 54.4447 38.6759 54.8714C38.685 54.8805 38.685 54.8897 38.6942 54.8988C38.7125 54.9171 38.7216 54.9355 38.7399 54.9538C38.7857 55.027 38.8315 55.0893 38.8846 55.1625L38.967 55.2724C39.7489 56.3087 40.7028 57.173 41.7575 57.8725C41.8765 57.9549 41.9937 58.0354 42.1127 58.1087C42.1677 58.1453 42.2317 58.1728 42.2848 58.2094C43.1399 58.7093 44.0665 59.1103 45.0388 59.374C45.0479 59.374 45.0662 59.3831 45.0754 59.3831C45.4031 59.4747 45.729 59.5461 46.066 59.601H46.0843H46.0934C46.1301 59.6102 46.1667 59.6102 46.2033 59.6193C46.3571 59.6468 46.5219 59.6743 46.6849 59.6926C47.0932 59.7475 47.5308 59.775 48.0582 59.775H48.0765C48.5947 59.775 49.0305 59.7475 49.4314 59.7017C50.2865 59.601 51.1123 59.3923 51.9033 59.1012C53.9669 58.3559 55.8126 57.0376 57.1491 55.2651L57.2132 55.1735C57.2315 55.1461 57.2498 55.1186 57.2773 55.082C57.3139 55.0362 57.3414 54.9904 57.3688 54.9538C57.3853 54.9355 57.4039 54.9079 57.4204 54.8805ZM57.7206 48.3456C57.7206 49.9551 57.3215 51.5097 56.5561 52.9178C55.0565 51.3632 53.1833 50.2719 51.1106 49.7262C51.8009 48.981 52.2385 47.9904 52.2385 46.8899C52.2385 44.5809 50.3562 42.6986 48.0472 42.6986C45.7383 42.6986 43.856 44.5809 43.856 46.8899C43.856 47.9904 44.2917 48.981 44.9839 49.7262C42.9203 50.2719 41.0471 51.3632 39.5384 52.9178C39.4285 52.7182 39.3205 52.5094 39.2289 52.308C38.6558 51.0629 38.3647 49.7262 38.3647 48.3438C38.3647 43.0174 42.7006 38.6702 48.0383 38.6702C48.9739 38.6702 49.884 38.7984 50.7299 39.0529H50.7391C54.8571 40.2541 57.7211 44.0629 57.7211 48.3454L57.7206 48.3456ZM55.322 54.6995C55.2212 54.8185 55.1224 54.9357 55.0125 55.0547C54.9301 55.1463 54.8404 55.2269 54.7488 55.3093C54.595 55.4539 54.4485 55.6004 54.2856 55.7359C54.249 55.7634 54.2123 55.7908 54.1757 55.8183C52.7658 56.9737 51.0391 57.7281 49.2027 57.946C48.9208 57.9826 48.6113 58.0009 48.2945 58.0101C48.2121 58.0101 48.1407 58.0192 48.0492 58.0192H47.9045C47.5493 58.0101 47.2051 57.9918 46.8864 57.9552C46.7583 57.9368 46.6228 57.9185 46.4873 57.8911C46.4507 57.8819 46.414 57.8819 46.3683 57.8728C46.068 57.8178 45.7768 57.7537 45.4857 57.6732C45.4674 57.664 45.4491 57.664 45.4399 57.6549C45.1671 57.5816 44.9034 57.4919 44.6398 57.4003C44.594 57.382 44.5574 57.3637 44.5116 57.3454C44.2845 57.2539 44.0483 57.155 43.8304 57.0451C43.7755 57.0177 43.7206 56.9902 43.6766 56.9627C43.4679 56.8529 43.2592 56.7448 43.0578 56.6258C43.0028 56.5892 42.9479 56.5526 42.9039 56.5251C42.7044 56.3969 42.5139 56.2706 42.3308 56.1351C42.2759 56.0985 42.2301 56.0527 42.1862 56.0161C42.0049 55.8714 41.8218 55.7249 41.6497 55.5711C41.6039 55.5254 41.5581 55.4796 41.5142 55.443C41.3421 55.28 41.1773 55.1152 41.0143 54.9431C40.9685 54.8973 40.9319 54.8424 40.8861 54.7984C40.7763 54.6794 40.6774 54.5531 40.5767 54.4249C42.4865 52.2972 45.1763 51.0887 48.0767 51.0887C50.9862 51.0887 53.6759 52.2972 55.5767 54.4249C55.476 54.5183 55.4025 54.6098 55.322 54.6995ZM45.6301 46.8991C45.6301 45.5624 46.7214 44.4711 48.0581 44.4711C49.3948 44.4711 50.486 45.5624 50.486 46.8991C50.486 48.2357 49.3948 49.327 48.0581 49.327C46.7122 49.327 45.6301 48.2357 45.6301 46.8991ZM40.5582 3.3639C42.1036 3.3639 43.4128 5.44581 43.5044 7.97265H37.6047C37.7036 5.45495 39.0128 3.3639 40.5582 3.3639ZM26.5946 3.3639C28.14 3.3639 29.4492 5.44581 29.5408 7.97265H23.6411C23.7308 5.45495 25.0492 3.3639 26.5946 3.3639ZM12.6216 3.3639C14.1671 3.3639 15.4762 5.44581 15.5678 7.97265H9.66814C9.76702 5.45495 11.0762 3.3639 12.6216 3.3639ZM5.81211 9.73609H8.0112C8.48361 12.7171 10.3293 14.8905 12.6108 14.8905C13.1015 14.8905 13.4934 14.5005 13.4934 14.0079C13.4934 13.5172 13.1034 13.1253 12.6108 13.1253C11.3199 13.1253 10.192 11.6807 9.80197 9.73422H21.9838C22.4563 12.7152 24.302 14.8886 26.5835 14.8886C27.0742 14.8886 27.466 14.4986 27.466 14.006C27.466 13.5153 27.076 13.1235 26.5835 13.1235C25.2926 13.1235 24.1646 11.6788 23.7746 9.73234H35.9565C36.4289 12.7133 38.2746 14.8867 40.5561 14.8867C41.0468 14.8867 41.4387 14.4967 41.4387 14.0042C41.4387 13.5134 41.0486 13.1216 40.5561 13.1216C39.2652 13.1216 38.1373 11.6769 37.7473 9.73047H47.366C48.884 9.73047 50.1108 10.9664 50.1108 12.4752V18.276L3.06702 18.2815V12.4807C3.06702 10.9719 4.3033 9.73609 5.81211 9.73609ZM5.82127 51.8083C4.30331 51.8083 3.06736 50.5815 3.06736 49.0635V20.054H50.1111V37.0991C50.0745 37.09 50.0287 37.09 49.9921 37.0808C49.7376 37.035 49.4739 36.9984 49.2102 36.971C49.1461 36.9618 49.0912 36.9527 49.0289 36.9527C48.7012 36.9252 48.3753 36.9069 48.0475 36.9069C41.7376 36.9069 36.6109 42.0341 36.6109 48.3434C36.6109 48.7078 36.6384 49.0704 36.6658 49.4347C36.675 49.5354 36.6842 49.6343 36.7025 49.735C36.7391 50.017 36.7849 50.299 36.838 50.5718C36.8563 50.6542 36.8654 50.744 36.8929 50.8264C36.9661 51.1541 37.0467 51.4727 37.1566 51.7895H5.81969L5.82127 51.8083Z" fill="#E56B45"/>
<path d="M38.8372 30.7249C39.0093 30.897 39.2364 30.9794 39.4652 30.9794C39.6923 30.9794 39.9193 30.897 40.0933 30.7249L41.2304 29.5878L42.3674 30.7249C42.5396 30.897 42.7666 30.9794 42.9955 30.9794C43.2225 30.9794 43.4496 30.897 43.6235 30.7249C43.9696 30.3788 43.9696 29.824 43.6235 29.4798L42.4864 28.3427L43.6235 27.2056C43.9696 26.8595 43.9696 26.3047 43.6235 25.9605C43.2774 25.6144 42.7226 25.6144 42.3784 25.9605L41.2413 27.0976L40.1042 25.9605C39.7582 25.6144 39.2033 25.6144 38.8591 25.9605C38.5131 26.3065 38.5131 26.8614 38.8591 27.2056L39.9962 28.3427L38.8591 29.4798C38.4929 29.824 38.493 30.3788 38.8372 30.7249Z" fill="#E56B45"/>
<path d="M28.9733 40.4696C28.6272 40.1236 28.0724 40.1236 27.7282 40.4696L26.5911 41.6067L25.454 40.4696C25.1079 40.1236 24.5531 40.1236 24.2089 40.4696C23.8628 40.8157 23.8628 41.3705 24.2089 41.7147L25.346 42.8518L24.2089 43.9889C23.8628 44.335 23.8628 44.8898 24.2089 45.234C24.381 45.4061 24.6081 45.4885 24.8369 45.4885C25.064 45.4885 25.291 45.4061 25.465 45.234L26.602 44.0969L27.7391 45.234C27.9113 45.4061 28.1383 45.4885 28.3672 45.4885C28.5942 45.4885 28.8213 45.4061 28.9952 45.234C29.3413 44.8879 29.3413 44.3331 28.9952 43.9889L27.8581 42.8518L28.9952 41.7147C29.3193 41.3705 29.3193 40.8157 28.9733 40.4696Z" fill="#E56B45"/>
<path d="M14.3469 26.0978C14.0009 25.7517 13.446 25.7517 13.1018 26.0978L11.9647 27.2349L10.8276 26.0978C10.4816 25.7517 9.92675 25.7517 9.58255 26.0978C9.23648 26.4439 9.23648 26.9987 9.58255 27.3429L10.7196 28.48L9.58255 29.6171C9.23648 29.9632 9.23648 30.518 9.58255 30.8622C9.75467 31.0343 9.98172 31.1167 10.2106 31.1167C10.4376 31.1167 10.6647 31.0343 10.8386 30.8622L11.9757 29.7251L13.1128 30.8622C13.2849 31.0343 13.512 31.1167 13.7408 31.1167C13.9679 31.1167 14.1949 31.0343 14.3689 30.8622C14.7149 30.5161 14.7149 29.9613 14.3689 29.6171L13.2318 28.48L14.3689 27.3429C14.693 26.9968 14.693 26.442 14.3469 26.0978Z" fill="#E56B45"/>
</svg>
