<svg width="60" height="61" viewBox="0 0 60 61" fill="none" xmlns="http://www.w3.org/2000/svg">
<g clip-path="url(#clip0_171_925)">
<mask id="path-1-outside-1_171_925" maskUnits="userSpaceOnUse" x="0.210815" y="-0.225098" width="60" height="62" fill="black">
<rect fill="white" x="0.210815" y="-0.225098" width="60" height="62"/>
<path d="M24.4685 12.3096C25.8961 12.3096 27.0582 11.1475 27.0582 9.71996C27.0582 8.52166 26.2358 7.51837 25.128 7.22478V6.69601C25.128 6.3321 24.8324 6.03656 24.4685 6.03656C24.1046 6.03656 23.8091 6.33212 23.8091 6.69601V7.22478C22.7013 7.51833 21.8789 8.5196 21.8789 9.71996C21.8789 11.1475 23.041 12.3096 24.4685 12.3096ZM24.4685 8.44723C25.1703 8.44723 25.7413 9.01825 25.7413 9.71996C25.7413 10.4217 25.1703 10.9927 24.4685 10.9927C23.7668 10.9927 23.1958 10.4217 23.1958 9.71996C23.1958 9.01825 23.7668 8.44723 24.4685 8.44723ZM36.1057 12.6433C37.5332 12.6433 38.6954 11.4812 38.6954 10.0537C38.6954 8.8554 37.873 7.85212 36.7652 7.55852V7.02976C36.7652 6.66584 36.4696 6.3703 36.1057 6.3703C35.7418 6.3703 35.4463 6.66586 35.4463 7.02976V7.55852C34.3385 7.85207 33.5161 8.85334 33.5161 10.0537C33.5161 11.4812 34.6782 12.6433 36.1057 12.6433ZM36.1057 8.78097C36.8074 8.78097 37.3785 9.35199 37.3785 10.0537C37.3785 10.7554 36.8074 11.3264 36.1057 11.3264C35.404 11.3264 34.833 10.7554 34.833 10.0537C34.833 9.35199 35.404 8.78097 36.1057 8.78097ZM21.8162 31.3481V30.8193C21.8162 30.4554 21.5207 30.1599 21.1568 30.1599C20.7928 30.1599 20.4973 30.4555 20.4973 30.8193V31.3481C19.3895 31.6417 18.5671 32.6429 18.5671 33.8433C18.5671 35.2708 19.7293 36.4329 21.1568 36.4329C22.5843 36.4329 23.7464 35.2708 23.7464 33.8433C23.7464 32.643 22.924 31.6417 21.8162 31.3481ZM21.1568 35.114C20.4551 35.114 19.884 34.5429 19.884 33.8412C19.884 33.1395 20.4551 32.5685 21.1568 32.5685C21.8585 32.5685 22.4295 33.1395 22.4295 33.8412C22.4275 34.5429 21.8585 35.114 21.1568 35.114ZM38.1784 18.8202V19.3489C37.0706 19.6425 36.2482 20.6438 36.2482 21.8421C36.2482 23.2696 37.4103 24.4317 38.8378 24.4317C40.2653 24.4317 41.4275 23.2696 41.4275 21.8421C41.4275 20.6438 40.6051 19.6425 39.4973 19.3489V18.8202C39.4973 18.4562 39.2017 18.1607 38.8378 18.1607C38.4719 18.1607 38.1784 18.4563 38.1784 18.8202ZM40.1086 21.8421C40.1086 22.5438 39.5375 23.1148 38.8358 23.1148C38.1341 23.1148 37.5631 22.5438 37.5631 21.8421C37.5631 21.1404 38.1341 20.5694 38.8358 20.5694C39.5375 20.5714 40.1086 21.1404 40.1086 21.8421ZM21.1568 24.3172C22.5622 24.3172 23.7042 23.1751 23.7042 21.7697C23.7042 20.5935 22.9 19.6124 21.8162 19.3208V18.8142C21.8162 18.4502 21.5207 18.1547 21.1568 18.1547C20.7928 18.1547 20.4973 18.4503 20.4973 18.8142V19.3208C19.4136 19.6124 18.6093 20.5956 18.6093 21.7697C18.6093 23.1732 19.7514 24.3172 21.1568 24.3172ZM21.1568 20.5393C21.8343 20.5393 22.3872 21.0902 22.3872 21.7697C22.3872 22.4473 21.8363 23.0002 21.1568 23.0002C20.4792 23.0002 19.9263 22.4493 19.9263 21.7697C19.9263 21.0922 20.4792 20.5393 21.1568 20.5393ZM38.6952 31.3843V30.7027C38.6952 30.3388 38.3996 30.0433 38.0357 30.0433C37.6718 30.0433 37.3762 30.3388 37.3762 30.7027V31.3843C36.1055 31.6839 35.1545 32.8199 35.1545 34.1811C35.1545 35.7694 36.4473 37.0623 38.0357 37.0623C39.6241 37.0623 40.917 35.7695 40.917 34.1811C40.917 32.8199 39.9658 31.6839 38.6952 31.3843ZM38.0357 35.7433C37.1751 35.7433 36.4734 35.0416 36.4734 34.1811C36.4734 33.3205 37.1751 32.6188 38.0357 32.6188C38.8962 32.6188 39.598 33.3185 39.598 34.1811C39.6 35.0436 38.8983 35.7433 38.0357 35.7433ZM58.6989 59.571C56.8572 58.3063 52.8744 57.2588 47.5765 56.541C47.8579 56.0303 48.0188 55.4453 48.0188 54.822C48.0188 52.8516 46.4143 51.2471 44.4419 51.2471C43.9393 51.2471 43.4587 51.3537 43.0245 51.5407C42.8415 51.1627 42.6042 50.8128 42.3167 50.4992L42.7188 50.0046C42.9481 49.7231 42.9058 49.3069 42.6243 49.0777C42.3429 48.8465 41.9267 48.8927 41.6975 49.1722L41.2953 49.6668C40.4811 49.1823 39.538 48.9671 38.583 49.0636C37.4028 49.1843 36.3392 49.7553 35.5893 50.6761C34.8393 51.595 34.4935 52.7531 34.6121 53.9333C34.6724 54.5163 34.8413 55.0693 35.1087 55.5719C34.2381 55.5458 33.3555 55.5257 32.4628 55.5136L32.308 42.0827C40.284 41.2261 46.4523 35.7975 46.4523 29.2467C46.4523 26.9043 45.6481 24.6143 44.1241 22.5976C44.4779 21.5863 44.6569 20.5428 44.6569 19.4892C44.6569 16.6683 43.3681 13.9761 41.0197 11.8611C41.2369 11.1574 41.3454 10.4437 41.3454 9.72991C41.3454 4.79184 36.3008 0.774902 30.0979 0.774902C23.8971 0.774902 18.8504 4.79209 18.8504 9.72991C18.8504 10.4437 18.9589 11.1594 19.1761 11.8611C16.8277 13.9743 15.5389 16.6685 15.5389 19.4892C15.5389 20.5448 15.7178 21.5883 16.0717 22.5976C14.5477 24.6123 13.7435 26.9023 13.7435 29.2467C13.7435 35.7692 19.8557 41.1778 27.7797 42.0724L27.6249 55.5152C25.743 55.5433 23.9134 55.6036 22.1458 55.6941C22.6625 54.9502 22.9661 54.0474 22.9661 53.0743C22.9661 50.7561 21.245 48.838 19.0133 48.5163V47.8246C19.0133 47.4607 18.7177 47.1651 18.3538 47.1651C17.9899 47.1651 17.6944 47.4607 17.6944 47.8246V48.5163C15.4626 48.838 13.7415 50.7561 13.7415 53.0743C13.7415 54.3048 14.2281 55.4207 15.0163 56.2491C8.52623 56.9568 3.60607 58.1229 1.49677 59.5726C1.19719 59.7777 1.12079 60.1898 1.32587 60.4894C1.45455 60.6744 1.65963 60.7749 1.86874 60.7749C1.99742 60.7749 2.1261 60.7367 2.2407 60.6583C2.51213 60.4713 2.84189 60.2924 3.21984 60.1154C7.43407 58.147 18.0642 56.816 30.0916 56.816C42.1189 56.816 52.7493 58.147 56.9633 60.1154C57.3413 60.2924 57.671 60.4733 57.9424 60.6583C58.242 60.8654 58.6541 60.789 58.8592 60.4894C59.0743 60.1878 59 59.7776 58.6984 59.5705L58.6989 59.571ZM16.9787 56.0545C15.8528 55.5297 15.0667 54.3957 15.0667 53.0747C15.0667 51.4844 16.2006 50.1533 17.7006 49.8477V50.5353C17.7006 50.8993 17.9961 51.1948 18.36 51.1948C18.7239 51.1948 19.0195 50.8992 19.0195 50.5353V49.8477C20.5214 50.1533 21.6534 51.4844 21.6534 53.0747C21.6534 54.2107 21.0763 55.212 20.1997 55.8051C19.0959 55.8775 18.0202 55.96 16.9787 56.0545ZM32.0444 19.0233L34.2058 17.057C34.242 17.0248 34.2882 17.0087 34.3325 17.0087C34.3807 17.0087 34.429 17.0268 34.4672 17.065L34.9135 17.5114C34.9859 17.5837 34.9879 17.6983 34.9196 17.7727L32.0665 20.9072L32.0444 19.0233ZM36.526 27.2227L32.1932 31.9115L32.165 29.4444L35.585 26.2818C35.6212 26.2476 35.6675 26.2315 35.7117 26.2315C35.76 26.2315 35.8082 26.2496 35.8464 26.2878L36.52 26.9634C36.5944 27.0317 36.5964 27.1463 36.526 27.2227ZM15.0671 29.2474C15.0671 27.092 15.8512 24.9749 17.3371 23.1269C17.4859 22.942 17.5241 22.6927 17.4356 22.4715C17.0536 21.5084 16.8605 20.5051 16.8605 19.4898C16.8605 16.9302 18.1071 14.4733 20.3711 12.573C20.5842 12.3941 20.6626 12.0985 20.5641 11.8371C20.3047 11.1455 20.172 10.4357 20.172 9.73206C20.172 5.51984 24.6255 2.09369 30.1003 2.09369C35.5754 2.09369 40.0287 5.51974 40.0287 9.73206C40.0287 10.4338 39.896 11.1435 39.6366 11.8392C39.5381 12.1006 39.6165 12.3941 39.8296 12.5751C42.0935 14.4771 43.3401 16.9341 43.3401 19.4918C43.3401 20.5052 43.1471 21.5085 42.7651 22.4736C42.6786 22.6927 42.7168 22.944 42.8656 23.127C44.3514 24.9768 45.1356 27.0939 45.1356 29.2475C45.1356 35.0884 39.5484 39.9381 32.294 40.7621L32.2136 33.8274L37.4915 28.1171C38.0424 27.52 38.0263 26.6032 37.4512 26.0281L36.7777 25.3526C36.2047 24.7775 35.2858 24.7595 34.6907 25.3124L32.1453 27.6668L32.089 22.8393L35.893 18.6593C36.4359 18.0641 36.4158 17.1493 35.8448 16.5803L35.3984 16.1339C34.8274 15.5629 33.9146 15.5428 33.3194 16.0857L32.0246 17.2639L31.9643 11.968C31.9522 10.9245 31.0937 10.074 30.0482 10.074V10.072C29.0047 10.072 28.1441 10.9204 28.132 11.966L28.0717 17.2619L26.7769 16.0837C26.1818 15.5408 25.2689 15.5629 24.6979 16.1319L24.2515 16.5783C23.6805 17.1473 23.6604 18.0621 24.2033 18.6572L28.0073 22.8393L27.951 27.6668L25.4056 25.3144C24.8085 24.7635 23.8916 24.7815 23.3166 25.3546L22.643 26.0301C22.068 26.6052 22.0499 27.522 22.6028 28.1192L27.8807 33.8294L27.8003 40.7497C20.5984 39.8892 15.0673 35.0596 15.0673 29.2469L15.0671 29.2474ZM28.0518 19.0236L28.0297 20.9055L25.1766 17.771C25.1082 17.6966 25.1102 17.582 25.1826 17.5096L25.629 17.0633C25.6652 17.0271 25.7134 17.007 25.7637 17.007C25.8099 17.007 25.8542 17.0231 25.8904 17.0552L28.0518 19.0236ZM27.9311 29.4404L27.903 31.9095L23.5701 27.2207C23.5018 27.1463 23.5038 27.0297 23.5762 26.9593L24.2497 26.2858C24.2879 26.2496 24.3362 26.2295 24.3844 26.2295C24.4307 26.2295 24.4769 26.2456 24.5131 26.2798L27.9311 29.4404ZM30.1026 55.4979C29.7166 55.4979 29.3326 55.4999 28.9485 55.5019L29.4492 11.9802C29.4532 11.6545 29.7206 11.3891 30.0483 11.3891C30.3741 11.3891 30.6435 11.6545 30.6455 11.9802L31.1482 55.5019C30.8003 55.4999 30.4524 55.4979 30.1026 55.4979ZM36.7857 55.6346C36.3051 55.1339 35.9975 54.5006 35.9251 53.8009C35.8407 52.9705 36.084 52.1562 36.6127 51.5088C37.1395 50.8614 37.8875 50.4593 38.7178 50.3749C38.8264 50.3648 38.9329 50.3588 39.0395 50.3588C39.5341 50.3588 40.0126 50.4834 40.4489 50.7066L40.0589 51.1831C39.8297 51.4646 39.8719 51.8808 40.1534 52.11C40.276 52.2106 40.4228 52.2588 40.5696 52.2588C40.7606 52.2588 40.9496 52.1764 41.0803 52.0155L41.4723 51.535C41.8443 51.9994 42.0796 52.5604 42.1419 53.1676C42.2263 53.998 41.981 54.8103 41.4543 55.4577C41.3296 55.6105 41.1889 55.7492 41.0421 55.8739C39.6709 55.7774 38.2494 55.6969 36.7857 55.6346ZM42.6889 56.0085C43.2901 55.14 43.5635 54.0985 43.455 53.0369C43.4469 52.9645 43.4329 52.8941 43.4228 52.8218C43.7304 52.6629 44.0742 52.5664 44.4442 52.5664C45.6888 52.5664 46.7021 53.5798 46.7021 54.8243C46.7021 55.4154 46.4689 55.9523 46.0949 56.3544C45.0052 56.2237 43.8672 56.1091 42.6889 56.0085Z"/>
</mask>
<path d="M24.4685 12.3096C25.8961 12.3096 27.0582 11.1475 27.0582 9.71996C27.0582 8.52166 26.2358 7.51837 25.128 7.22478V6.69601C25.128 6.3321 24.8324 6.03656 24.4685 6.03656C24.1046 6.03656 23.8091 6.33212 23.8091 6.69601V7.22478C22.7013 7.51833 21.8789 8.5196 21.8789 9.71996C21.8789 11.1475 23.041 12.3096 24.4685 12.3096ZM24.4685 8.44723C25.1703 8.44723 25.7413 9.01825 25.7413 9.71996C25.7413 10.4217 25.1703 10.9927 24.4685 10.9927C23.7668 10.9927 23.1958 10.4217 23.1958 9.71996C23.1958 9.01825 23.7668 8.44723 24.4685 8.44723ZM36.1057 12.6433C37.5332 12.6433 38.6954 11.4812 38.6954 10.0537C38.6954 8.8554 37.873 7.85212 36.7652 7.55852V7.02976C36.7652 6.66584 36.4696 6.3703 36.1057 6.3703C35.7418 6.3703 35.4463 6.66586 35.4463 7.02976V7.55852C34.3385 7.85207 33.5161 8.85334 33.5161 10.0537C33.5161 11.4812 34.6782 12.6433 36.1057 12.6433ZM36.1057 8.78097C36.8074 8.78097 37.3785 9.35199 37.3785 10.0537C37.3785 10.7554 36.8074 11.3264 36.1057 11.3264C35.404 11.3264 34.833 10.7554 34.833 10.0537C34.833 9.35199 35.404 8.78097 36.1057 8.78097ZM21.8162 31.3481V30.8193C21.8162 30.4554 21.5207 30.1599 21.1568 30.1599C20.7928 30.1599 20.4973 30.4555 20.4973 30.8193V31.3481C19.3895 31.6417 18.5671 32.6429 18.5671 33.8433C18.5671 35.2708 19.7293 36.4329 21.1568 36.4329C22.5843 36.4329 23.7464 35.2708 23.7464 33.8433C23.7464 32.643 22.924 31.6417 21.8162 31.3481ZM21.1568 35.114C20.4551 35.114 19.884 34.5429 19.884 33.8412C19.884 33.1395 20.4551 32.5685 21.1568 32.5685C21.8585 32.5685 22.4295 33.1395 22.4295 33.8412C22.4275 34.5429 21.8585 35.114 21.1568 35.114ZM38.1784 18.8202V19.3489C37.0706 19.6425 36.2482 20.6438 36.2482 21.8421C36.2482 23.2696 37.4103 24.4317 38.8378 24.4317C40.2653 24.4317 41.4275 23.2696 41.4275 21.8421C41.4275 20.6438 40.6051 19.6425 39.4973 19.3489V18.8202C39.4973 18.4562 39.2017 18.1607 38.8378 18.1607C38.4719 18.1607 38.1784 18.4563 38.1784 18.8202ZM40.1086 21.8421C40.1086 22.5438 39.5375 23.1148 38.8358 23.1148C38.1341 23.1148 37.5631 22.5438 37.5631 21.8421C37.5631 21.1404 38.1341 20.5694 38.8358 20.5694C39.5375 20.5714 40.1086 21.1404 40.1086 21.8421ZM21.1568 24.3172C22.5622 24.3172 23.7042 23.1751 23.7042 21.7697C23.7042 20.5935 22.9 19.6124 21.8162 19.3208V18.8142C21.8162 18.4502 21.5207 18.1547 21.1568 18.1547C20.7928 18.1547 20.4973 18.4503 20.4973 18.8142V19.3208C19.4136 19.6124 18.6093 20.5956 18.6093 21.7697C18.6093 23.1732 19.7514 24.3172 21.1568 24.3172ZM21.1568 20.5393C21.8343 20.5393 22.3872 21.0902 22.3872 21.7697C22.3872 22.4473 21.8363 23.0002 21.1568 23.0002C20.4792 23.0002 19.9263 22.4493 19.9263 21.7697C19.9263 21.0922 20.4792 20.5393 21.1568 20.5393ZM38.6952 31.3843V30.7027C38.6952 30.3388 38.3996 30.0433 38.0357 30.0433C37.6718 30.0433 37.3762 30.3388 37.3762 30.7027V31.3843C36.1055 31.6839 35.1545 32.8199 35.1545 34.1811C35.1545 35.7694 36.4473 37.0623 38.0357 37.0623C39.6241 37.0623 40.917 35.7695 40.917 34.1811C40.917 32.8199 39.9658 31.6839 38.6952 31.3843ZM38.0357 35.7433C37.1751 35.7433 36.4734 35.0416 36.4734 34.1811C36.4734 33.3205 37.1751 32.6188 38.0357 32.6188C38.8962 32.6188 39.598 33.3185 39.598 34.1811C39.6 35.0436 38.8983 35.7433 38.0357 35.7433ZM58.6989 59.571C56.8572 58.3063 52.8744 57.2588 47.5765 56.541C47.8579 56.0303 48.0188 55.4453 48.0188 54.822C48.0188 52.8516 46.4143 51.2471 44.4419 51.2471C43.9393 51.2471 43.4587 51.3537 43.0245 51.5407C42.8415 51.1627 42.6042 50.8128 42.3167 50.4992L42.7188 50.0046C42.9481 49.7231 42.9058 49.3069 42.6243 49.0777C42.3429 48.8465 41.9267 48.8927 41.6975 49.1722L41.2953 49.6668C40.4811 49.1823 39.538 48.9671 38.583 49.0636C37.4028 49.1843 36.3392 49.7553 35.5893 50.6761C34.8393 51.595 34.4935 52.7531 34.6121 53.9333C34.6724 54.5163 34.8413 55.0693 35.1087 55.5719C34.2381 55.5458 33.3555 55.5257 32.4628 55.5136L32.308 42.0827C40.284 41.2261 46.4523 35.7975 46.4523 29.2467C46.4523 26.9043 45.6481 24.6143 44.1241 22.5976C44.4779 21.5863 44.6569 20.5428 44.6569 19.4892C44.6569 16.6683 43.3681 13.9761 41.0197 11.8611C41.2369 11.1574 41.3454 10.4437 41.3454 9.72991C41.3454 4.79184 36.3008 0.774902 30.0979 0.774902C23.8971 0.774902 18.8504 4.79209 18.8504 9.72991C18.8504 10.4437 18.9589 11.1594 19.1761 11.8611C16.8277 13.9743 15.5389 16.6685 15.5389 19.4892C15.5389 20.5448 15.7178 21.5883 16.0717 22.5976C14.5477 24.6123 13.7435 26.9023 13.7435 29.2467C13.7435 35.7692 19.8557 41.1778 27.7797 42.0724L27.6249 55.5152C25.743 55.5433 23.9134 55.6036 22.1458 55.6941C22.6625 54.9502 22.9661 54.0474 22.9661 53.0743C22.9661 50.7561 21.245 48.838 19.0133 48.5163V47.8246C19.0133 47.4607 18.7177 47.1651 18.3538 47.1651C17.9899 47.1651 17.6944 47.4607 17.6944 47.8246V48.5163C15.4626 48.838 13.7415 50.7561 13.7415 53.0743C13.7415 54.3048 14.2281 55.4207 15.0163 56.2491C8.52623 56.9568 3.60607 58.1229 1.49677 59.5726C1.19719 59.7777 1.12079 60.1898 1.32587 60.4894C1.45455 60.6744 1.65963 60.7749 1.86874 60.7749C1.99742 60.7749 2.1261 60.7367 2.2407 60.6583C2.51213 60.4713 2.84189 60.2924 3.21984 60.1154C7.43407 58.147 18.0642 56.816 30.0916 56.816C42.1189 56.816 52.7493 58.147 56.9633 60.1154C57.3413 60.2924 57.671 60.4733 57.9424 60.6583C58.242 60.8654 58.6541 60.789 58.8592 60.4894C59.0743 60.1878 59 59.7776 58.6984 59.5705L58.6989 59.571ZM16.9787 56.0545C15.8528 55.5297 15.0667 54.3957 15.0667 53.0747C15.0667 51.4844 16.2006 50.1533 17.7006 49.8477V50.5353C17.7006 50.8993 17.9961 51.1948 18.36 51.1948C18.7239 51.1948 19.0195 50.8992 19.0195 50.5353V49.8477C20.5214 50.1533 21.6534 51.4844 21.6534 53.0747C21.6534 54.2107 21.0763 55.212 20.1997 55.8051C19.0959 55.8775 18.0202 55.96 16.9787 56.0545ZM32.0444 19.0233L34.2058 17.057C34.242 17.0248 34.2882 17.0087 34.3325 17.0087C34.3807 17.0087 34.429 17.0268 34.4672 17.065L34.9135 17.5114C34.9859 17.5837 34.9879 17.6983 34.9196 17.7727L32.0665 20.9072L32.0444 19.0233ZM36.526 27.2227L32.1932 31.9115L32.165 29.4444L35.585 26.2818C35.6212 26.2476 35.6675 26.2315 35.7117 26.2315C35.76 26.2315 35.8082 26.2496 35.8464 26.2878L36.52 26.9634C36.5944 27.0317 36.5964 27.1463 36.526 27.2227ZM15.0671 29.2474C15.0671 27.092 15.8512 24.9749 17.3371 23.1269C17.4859 22.942 17.5241 22.6927 17.4356 22.4715C17.0536 21.5084 16.8605 20.5051 16.8605 19.4898C16.8605 16.9302 18.1071 14.4733 20.3711 12.573C20.5842 12.3941 20.6626 12.0985 20.5641 11.8371C20.3047 11.1455 20.172 10.4357 20.172 9.73206C20.172 5.51984 24.6255 2.09369 30.1003 2.09369C35.5754 2.09369 40.0287 5.51974 40.0287 9.73206C40.0287 10.4338 39.896 11.1435 39.6366 11.8392C39.5381 12.1006 39.6165 12.3941 39.8296 12.5751C42.0935 14.4771 43.3401 16.9341 43.3401 19.4918C43.3401 20.5052 43.1471 21.5085 42.7651 22.4736C42.6786 22.6927 42.7168 22.944 42.8656 23.127C44.3514 24.9768 45.1356 27.0939 45.1356 29.2475C45.1356 35.0884 39.5484 39.9381 32.294 40.7621L32.2136 33.8274L37.4915 28.1171C38.0424 27.52 38.0263 26.6032 37.4512 26.0281L36.7777 25.3526C36.2047 24.7775 35.2858 24.7595 34.6907 25.3124L32.1453 27.6668L32.089 22.8393L35.893 18.6593C36.4359 18.0641 36.4158 17.1493 35.8448 16.5803L35.3984 16.1339C34.8274 15.5629 33.9146 15.5428 33.3194 16.0857L32.0246 17.2639L31.9643 11.968C31.9522 10.9245 31.0937 10.074 30.0482 10.074V10.072C29.0047 10.072 28.1441 10.9204 28.132 11.966L28.0717 17.2619L26.7769 16.0837C26.1818 15.5408 25.2689 15.5629 24.6979 16.1319L24.2515 16.5783C23.6805 17.1473 23.6604 18.0621 24.2033 18.6572L28.0073 22.8393L27.951 27.6668L25.4056 25.3144C24.8085 24.7635 23.8916 24.7815 23.3166 25.3546L22.643 26.0301C22.068 26.6052 22.0499 27.522 22.6028 28.1192L27.8807 33.8294L27.8003 40.7497C20.5984 39.8892 15.0673 35.0596 15.0673 29.2469L15.0671 29.2474ZM28.0518 19.0236L28.0297 20.9055L25.1766 17.771C25.1082 17.6966 25.1102 17.582 25.1826 17.5096L25.629 17.0633C25.6652 17.0271 25.7134 17.007 25.7637 17.007C25.8099 17.007 25.8542 17.0231 25.8904 17.0552L28.0518 19.0236ZM27.9311 29.4404L27.903 31.9095L23.5701 27.2207C23.5018 27.1463 23.5038 27.0297 23.5762 26.9593L24.2497 26.2858C24.2879 26.2496 24.3362 26.2295 24.3844 26.2295C24.4307 26.2295 24.4769 26.2456 24.5131 26.2798L27.9311 29.4404ZM30.1026 55.4979C29.7166 55.4979 29.3326 55.4999 28.9485 55.5019L29.4492 11.9802C29.4532 11.6545 29.7206 11.3891 30.0483 11.3891C30.3741 11.3891 30.6435 11.6545 30.6455 11.9802L31.1482 55.5019C30.8003 55.4999 30.4524 55.4979 30.1026 55.4979ZM36.7857 55.6346C36.3051 55.1339 35.9975 54.5006 35.9251 53.8009C35.8407 52.9705 36.084 52.1562 36.6127 51.5088C37.1395 50.8614 37.8875 50.4593 38.7178 50.3749C38.8264 50.3648 38.9329 50.3588 39.0395 50.3588C39.5341 50.3588 40.0126 50.4834 40.4489 50.7066L40.0589 51.1831C39.8297 51.4646 39.8719 51.8808 40.1534 52.11C40.276 52.2106 40.4228 52.2588 40.5696 52.2588C40.7606 52.2588 40.9496 52.1764 41.0803 52.0155L41.4723 51.535C41.8443 51.9994 42.0796 52.5604 42.1419 53.1676C42.2263 53.998 41.981 54.8103 41.4543 55.4577C41.3296 55.6105 41.1889 55.7492 41.0421 55.8739C39.6709 55.7774 38.2494 55.6969 36.7857 55.6346ZM42.6889 56.0085C43.2901 55.14 43.5635 54.0985 43.455 53.0369C43.4469 52.9645 43.4329 52.8941 43.4228 52.8218C43.7304 52.6629 44.0742 52.5664 44.4442 52.5664C45.6888 52.5664 46.7021 53.5798 46.7021 54.8243C46.7021 55.4154 46.4689 55.9523 46.0949 56.3544C45.0052 56.2237 43.8672 56.1091 42.6889 56.0085Z" fill="#1529A0"/>
<path d="M24.4685 12.3096C25.8961 12.3096 27.0582 11.1475 27.0582 9.71996C27.0582 8.52166 26.2358 7.51837 25.128 7.22478V6.69601C25.128 6.3321 24.8324 6.03656 24.4685 6.03656C24.1046 6.03656 23.8091 6.33212 23.8091 6.69601V7.22478C22.7013 7.51833 21.8789 8.5196 21.8789 9.71996C21.8789 11.1475 23.041 12.3096 24.4685 12.3096ZM24.4685 8.44723C25.1703 8.44723 25.7413 9.01825 25.7413 9.71996C25.7413 10.4217 25.1703 10.9927 24.4685 10.9927C23.7668 10.9927 23.1958 10.4217 23.1958 9.71996C23.1958 9.01825 23.7668 8.44723 24.4685 8.44723ZM36.1057 12.6433C37.5332 12.6433 38.6954 11.4812 38.6954 10.0537C38.6954 8.8554 37.873 7.85212 36.7652 7.55852V7.02976C36.7652 6.66584 36.4696 6.3703 36.1057 6.3703C35.7418 6.3703 35.4463 6.66586 35.4463 7.02976V7.55852C34.3385 7.85207 33.5161 8.85334 33.5161 10.0537C33.5161 11.4812 34.6782 12.6433 36.1057 12.6433ZM36.1057 8.78097C36.8074 8.78097 37.3785 9.35199 37.3785 10.0537C37.3785 10.7554 36.8074 11.3264 36.1057 11.3264C35.404 11.3264 34.833 10.7554 34.833 10.0537C34.833 9.35199 35.404 8.78097 36.1057 8.78097ZM21.8162 31.3481V30.8193C21.8162 30.4554 21.5207 30.1599 21.1568 30.1599C20.7928 30.1599 20.4973 30.4555 20.4973 30.8193V31.3481C19.3895 31.6417 18.5671 32.6429 18.5671 33.8433C18.5671 35.2708 19.7293 36.4329 21.1568 36.4329C22.5843 36.4329 23.7464 35.2708 23.7464 33.8433C23.7464 32.643 22.924 31.6417 21.8162 31.3481ZM21.1568 35.114C20.4551 35.114 19.884 34.5429 19.884 33.8412C19.884 33.1395 20.4551 32.5685 21.1568 32.5685C21.8585 32.5685 22.4295 33.1395 22.4295 33.8412C22.4275 34.5429 21.8585 35.114 21.1568 35.114ZM38.1784 18.8202V19.3489C37.0706 19.6425 36.2482 20.6438 36.2482 21.8421C36.2482 23.2696 37.4103 24.4317 38.8378 24.4317C40.2653 24.4317 41.4275 23.2696 41.4275 21.8421C41.4275 20.6438 40.6051 19.6425 39.4973 19.3489V18.8202C39.4973 18.4562 39.2017 18.1607 38.8378 18.1607C38.4719 18.1607 38.1784 18.4563 38.1784 18.8202ZM40.1086 21.8421C40.1086 22.5438 39.5375 23.1148 38.8358 23.1148C38.1341 23.1148 37.5631 22.5438 37.5631 21.8421C37.5631 21.1404 38.1341 20.5694 38.8358 20.5694C39.5375 20.5714 40.1086 21.1404 40.1086 21.8421ZM21.1568 24.3172C22.5622 24.3172 23.7042 23.1751 23.7042 21.7697C23.7042 20.5935 22.9 19.6124 21.8162 19.3208V18.8142C21.8162 18.4502 21.5207 18.1547 21.1568 18.1547C20.7928 18.1547 20.4973 18.4503 20.4973 18.8142V19.3208C19.4136 19.6124 18.6093 20.5956 18.6093 21.7697C18.6093 23.1732 19.7514 24.3172 21.1568 24.3172ZM21.1568 20.5393C21.8343 20.5393 22.3872 21.0902 22.3872 21.7697C22.3872 22.4473 21.8363 23.0002 21.1568 23.0002C20.4792 23.0002 19.9263 22.4493 19.9263 21.7697C19.9263 21.0922 20.4792 20.5393 21.1568 20.5393ZM38.6952 31.3843V30.7027C38.6952 30.3388 38.3996 30.0433 38.0357 30.0433C37.6718 30.0433 37.3762 30.3388 37.3762 30.7027V31.3843C36.1055 31.6839 35.1545 32.8199 35.1545 34.1811C35.1545 35.7694 36.4473 37.0623 38.0357 37.0623C39.6241 37.0623 40.917 35.7695 40.917 34.1811C40.917 32.8199 39.9658 31.6839 38.6952 31.3843ZM38.0357 35.7433C37.1751 35.7433 36.4734 35.0416 36.4734 34.1811C36.4734 33.3205 37.1751 32.6188 38.0357 32.6188C38.8962 32.6188 39.598 33.3185 39.598 34.1811C39.6 35.0436 38.8983 35.7433 38.0357 35.7433ZM58.6989 59.571C56.8572 58.3063 52.8744 57.2588 47.5765 56.541C47.8579 56.0303 48.0188 55.4453 48.0188 54.822C48.0188 52.8516 46.4143 51.2471 44.4419 51.2471C43.9393 51.2471 43.4587 51.3537 43.0245 51.5407C42.8415 51.1627 42.6042 50.8128 42.3167 50.4992L42.7188 50.0046C42.9481 49.7231 42.9058 49.3069 42.6243 49.0777C42.3429 48.8465 41.9267 48.8927 41.6975 49.1722L41.2953 49.6668C40.4811 49.1823 39.538 48.9671 38.583 49.0636C37.4028 49.1843 36.3392 49.7553 35.5893 50.6761C34.8393 51.595 34.4935 52.7531 34.6121 53.9333C34.6724 54.5163 34.8413 55.0693 35.1087 55.5719C34.2381 55.5458 33.3555 55.5257 32.4628 55.5136L32.308 42.0827C40.284 41.2261 46.4523 35.7975 46.4523 29.2467C46.4523 26.9043 45.6481 24.6143 44.1241 22.5976C44.4779 21.5863 44.6569 20.5428 44.6569 19.4892C44.6569 16.6683 43.3681 13.9761 41.0197 11.8611C41.2369 11.1574 41.3454 10.4437 41.3454 9.72991C41.3454 4.79184 36.3008 0.774902 30.0979 0.774902C23.8971 0.774902 18.8504 4.79209 18.8504 9.72991C18.8504 10.4437 18.9589 11.1594 19.1761 11.8611C16.8277 13.9743 15.5389 16.6685 15.5389 19.4892C15.5389 20.5448 15.7178 21.5883 16.0717 22.5976C14.5477 24.6123 13.7435 26.9023 13.7435 29.2467C13.7435 35.7692 19.8557 41.1778 27.7797 42.0724L27.6249 55.5152C25.743 55.5433 23.9134 55.6036 22.1458 55.6941C22.6625 54.9502 22.9661 54.0474 22.9661 53.0743C22.9661 50.7561 21.245 48.838 19.0133 48.5163V47.8246C19.0133 47.4607 18.7177 47.1651 18.3538 47.1651C17.9899 47.1651 17.6944 47.4607 17.6944 47.8246V48.5163C15.4626 48.838 13.7415 50.7561 13.7415 53.0743C13.7415 54.3048 14.2281 55.4207 15.0163 56.2491C8.52623 56.9568 3.60607 58.1229 1.49677 59.5726C1.19719 59.7777 1.12079 60.1898 1.32587 60.4894C1.45455 60.6744 1.65963 60.7749 1.86874 60.7749C1.99742 60.7749 2.1261 60.7367 2.2407 60.6583C2.51213 60.4713 2.84189 60.2924 3.21984 60.1154C7.43407 58.147 18.0642 56.816 30.0916 56.816C42.1189 56.816 52.7493 58.147 56.9633 60.1154C57.3413 60.2924 57.671 60.4733 57.9424 60.6583C58.242 60.8654 58.6541 60.789 58.8592 60.4894C59.0743 60.1878 59 59.7776 58.6984 59.5705L58.6989 59.571ZM16.9787 56.0545C15.8528 55.5297 15.0667 54.3957 15.0667 53.0747C15.0667 51.4844 16.2006 50.1533 17.7006 49.8477V50.5353C17.7006 50.8993 17.9961 51.1948 18.36 51.1948C18.7239 51.1948 19.0195 50.8992 19.0195 50.5353V49.8477C20.5214 50.1533 21.6534 51.4844 21.6534 53.0747C21.6534 54.2107 21.0763 55.212 20.1997 55.8051C19.0959 55.8775 18.0202 55.96 16.9787 56.0545ZM32.0444 19.0233L34.2058 17.057C34.242 17.0248 34.2882 17.0087 34.3325 17.0087C34.3807 17.0087 34.429 17.0268 34.4672 17.065L34.9135 17.5114C34.9859 17.5837 34.9879 17.6983 34.9196 17.7727L32.0665 20.9072L32.0444 19.0233ZM36.526 27.2227L32.1932 31.9115L32.165 29.4444L35.585 26.2818C35.6212 26.2476 35.6675 26.2315 35.7117 26.2315C35.76 26.2315 35.8082 26.2496 35.8464 26.2878L36.52 26.9634C36.5944 27.0317 36.5964 27.1463 36.526 27.2227ZM15.0671 29.2474C15.0671 27.092 15.8512 24.9749 17.3371 23.1269C17.4859 22.942 17.5241 22.6927 17.4356 22.4715C17.0536 21.5084 16.8605 20.5051 16.8605 19.4898C16.8605 16.9302 18.1071 14.4733 20.3711 12.573C20.5842 12.3941 20.6626 12.0985 20.5641 11.8371C20.3047 11.1455 20.172 10.4357 20.172 9.73206C20.172 5.51984 24.6255 2.09369 30.1003 2.09369C35.5754 2.09369 40.0287 5.51974 40.0287 9.73206C40.0287 10.4338 39.896 11.1435 39.6366 11.8392C39.5381 12.1006 39.6165 12.3941 39.8296 12.5751C42.0935 14.4771 43.3401 16.9341 43.3401 19.4918C43.3401 20.5052 43.1471 21.5085 42.7651 22.4736C42.6786 22.6927 42.7168 22.944 42.8656 23.127C44.3514 24.9768 45.1356 27.0939 45.1356 29.2475C45.1356 35.0884 39.5484 39.9381 32.294 40.7621L32.2136 33.8274L37.4915 28.1171C38.0424 27.52 38.0263 26.6032 37.4512 26.0281L36.7777 25.3526C36.2047 24.7775 35.2858 24.7595 34.6907 25.3124L32.1453 27.6668L32.089 22.8393L35.893 18.6593C36.4359 18.0641 36.4158 17.1493 35.8448 16.5803L35.3984 16.1339C34.8274 15.5629 33.9146 15.5428 33.3194 16.0857L32.0246 17.2639L31.9643 11.968C31.9522 10.9245 31.0937 10.074 30.0482 10.074V10.072C29.0047 10.072 28.1441 10.9204 28.132 11.966L28.0717 17.2619L26.7769 16.0837C26.1818 15.5408 25.2689 15.5629 24.6979 16.1319L24.2515 16.5783C23.6805 17.1473 23.6604 18.0621 24.2033 18.6572L28.0073 22.8393L27.951 27.6668L25.4056 25.3144C24.8085 24.7635 23.8916 24.7815 23.3166 25.3546L22.643 26.0301C22.068 26.6052 22.0499 27.522 22.6028 28.1192L27.8807 33.8294L27.8003 40.7497C20.5984 39.8892 15.0673 35.0596 15.0673 29.2469L15.0671 29.2474ZM28.0518 19.0236L28.0297 20.9055L25.1766 17.771C25.1082 17.6966 25.1102 17.582 25.1826 17.5096L25.629 17.0633C25.6652 17.0271 25.7134 17.007 25.7637 17.007C25.8099 17.007 25.8542 17.0231 25.8904 17.0552L28.0518 19.0236ZM27.9311 29.4404L27.903 31.9095L23.5701 27.2207C23.5018 27.1463 23.5038 27.0297 23.5762 26.9593L24.2497 26.2858C24.2879 26.2496 24.3362 26.2295 24.3844 26.2295C24.4307 26.2295 24.4769 26.2456 24.5131 26.2798L27.9311 29.4404ZM30.1026 55.4979C29.7166 55.4979 29.3326 55.4999 28.9485 55.5019L29.4492 11.9802C29.4532 11.6545 29.7206 11.3891 30.0483 11.3891C30.3741 11.3891 30.6435 11.6545 30.6455 11.9802L31.1482 55.5019C30.8003 55.4999 30.4524 55.4979 30.1026 55.4979ZM36.7857 55.6346C36.3051 55.1339 35.9975 54.5006 35.9251 53.8009C35.8407 52.9705 36.084 52.1562 36.6127 51.5088C37.1395 50.8614 37.8875 50.4593 38.7178 50.3749C38.8264 50.3648 38.9329 50.3588 39.0395 50.3588C39.5341 50.3588 40.0126 50.4834 40.4489 50.7066L40.0589 51.1831C39.8297 51.4646 39.8719 51.8808 40.1534 52.11C40.276 52.2106 40.4228 52.2588 40.5696 52.2588C40.7606 52.2588 40.9496 52.1764 41.0803 52.0155L41.4723 51.535C41.8443 51.9994 42.0796 52.5604 42.1419 53.1676C42.2263 53.998 41.981 54.8103 41.4543 55.4577C41.3296 55.6105 41.1889 55.7492 41.0421 55.8739C39.6709 55.7774 38.2494 55.6969 36.7857 55.6346ZM42.6889 56.0085C43.2901 55.14 43.5635 54.0985 43.455 53.0369C43.4469 52.9645 43.4329 52.8941 43.4228 52.8218C43.7304 52.6629 44.0742 52.5664 44.4442 52.5664C45.6888 52.5664 46.7021 53.5798 46.7021 54.8243C46.7021 55.4154 46.4689 55.9523 46.0949 56.3544C45.0052 56.2237 43.8672 56.1091 42.6889 56.0085Z" stroke="#1529A0" stroke-width="0.549029" mask="url(#path-1-outside-1_171_925)"/>
</g>
<defs>
<clipPath id="clip0_171_925">
<rect width="59" height="60" fill="white" transform="translate(0.59668 0.774902)"/>
</clipPath>
</defs>
</svg>
