<svg width="80" height="81" viewBox="0 0 80 81" fill="none" xmlns="http://www.w3.org/2000/svg">
<path d="M22.2072 21.2173C24.7365 21.2173 27.1608 20.2163 28.9503 18.4293C30.7374 16.6422 31.7433 14.2178 31.7433 11.6912C31.7457 9.16428 30.7398 6.73753 28.9528 4.95053C27.1657 3.16353 24.7413 2.16003 22.2147 2.16003C19.6853 2.16248 17.261 3.16591 15.4765 4.95547C13.6894 6.7426 12.686 9.16935 12.6885 11.6961C12.6934 14.2205 13.6968 16.64 15.4815 18.4248C17.2662 20.2071 19.6856 21.2129 22.2077 21.2178L22.2072 21.2173ZM22.2072 6.1686C24.4435 6.1686 26.4601 7.51622 27.3146 9.58166C28.1715 11.6471 27.6979 14.025 26.1158 15.6046C24.5363 17.1866 22.1583 17.6603 20.0929 16.8033C18.0275 15.9488 16.6798 13.9322 16.6798 11.6959C16.6798 8.64416 19.1553 6.1686 22.2072 6.1686ZM6.00091 32.1698C5.70549 29.6918 6.48431 27.2065 8.13959 25.3411C9.79484 23.4783 12.1703 22.409 14.6633 22.409H17.1365C17.8469 22.4065 18.5207 22.7312 18.9602 23.2878L22.1609 27.2868L25.3616 23.2878H25.3592C25.8059 22.7288 26.4847 22.404 27.2 22.409H30.4007C31.6848 22.409 32.93 22.8557 33.9212 23.6736L40.9843 29.5061L48.0012 24.0007C50.4303 22.1403 53.9093 22.6018 55.7699 25.0334C57.6278 27.4626 57.1664 30.9392 54.7372 32.7997L44.3685 40.9684C42.3226 42.5822 39.4271 42.548 37.4178 40.8878L33.9535 38.0241L30.1522 67.1035C30.0082 68.2094 28.9974 68.9882 27.8939 68.8442C26.788 68.7002 26.0092 67.6894 26.1532 66.5835L30.4573 33.9272C30.5526 33.207 31.0311 32.5942 31.7073 32.3281C32.3836 32.0644 33.1527 32.1865 33.7117 32.6479L40.0005 37.809C40.5718 38.2387 41.3579 38.2387 41.9292 37.809L52.3298 29.6184V29.616C52.9987 29.1472 53.2062 28.2439 52.8083 27.5286C52.53 27.0672 52.0295 26.784 51.4875 26.784C51.1457 26.784 50.8137 26.8987 50.5451 27.1136L42.232 33.6567C41.4995 34.2475 40.4546 34.2475 39.7198 33.6567L31.4092 26.7598C31.126 26.5254 30.7671 26.3985 30.4009 26.4083H28.001L24.3852 30.9273V30.9298C23.8506 31.5987 23.04 31.9869 22.1855 31.9869C21.3286 31.9869 20.518 31.5987 19.9834 30.9298L16.3286 26.4083H14.6635C13.3184 26.4107 12.0366 26.9844 11.1406 27.9878C10.2446 28.9888 9.81736 30.3267 9.96873 31.6646L11.9194 46.3446C12.0635 47.7533 12.9937 48.9569 14.3193 49.4476C15.0151 49.7015 15.5132 50.3167 15.6157 51.0491L18.9115 75.1704V75.1679C18.9335 75.4951 19.2021 75.749 19.5292 75.7539H24.7538H24.7514C30.2568 75.7465 35.5427 73.5957 39.4852 69.7553C43.4305 65.9126 45.7205 60.6878 45.872 55.1853L44.417 56.6404C43.6211 57.3191 42.4394 57.2727 41.7021 56.5329C40.9648 55.7932 40.9208 54.6091 41.5996 53.8181L46.5214 48.8962C46.895 48.5202 47.4052 48.3103 47.9374 48.3103C48.4672 48.3103 48.9775 48.5202 49.3534 48.8962L54.2729 53.8156V53.8181C55.0541 54.5993 55.0541 55.8664 54.2729 56.6501C53.4892 57.4313 52.2221 57.4313 51.4409 56.6501L49.8881 55.0973C49.7636 61.6792 47.061 67.9511 42.3637 72.563C37.6641 77.1772 31.3456 79.763 24.7612 79.7673H19.5366C17.1904 79.7722 15.2177 78.012 14.9517 75.6804L11.8169 52.6798C9.6563 51.4713 8.21587 49.2935 7.94487 46.8326L6.00091 32.1698ZM57.0409 40.898C57.0409 37.0723 59.785 33.8011 63.5522 33.1367V31.2324C63.5522 30.1289 64.4482 29.2329 65.5517 29.2329C66.6576 29.2329 67.5512 30.1289 67.5512 31.2324V33.1685C69.68 33.6787 71.5282 34.9922 72.7123 36.833C73.015 37.2774 73.1273 37.8267 73.0199 38.3565C72.9125 38.8838 72.5975 39.3477 72.1435 39.6407C71.6894 39.9312 71.1376 40.0288 70.6127 39.9092C70.0878 39.7896 69.6337 39.46 69.353 39.001C68.5229 37.7071 67.0898 36.9258 65.5517 36.9283C63.3764 36.9283 61.04 38.1685 61.04 40.9273C61.04 41.6402 61.04 43.8155 66.0009 44.9263H66.0717C73.0248 46.5254 74.0723 50.5659 74.0723 52.8294V52.8318C74.0723 56.6575 71.3258 59.9287 67.5611 60.5931V62.4974C67.5611 63.6009 66.6651 64.4969 65.5591 64.4969C64.4556 64.4969 63.5596 63.6009 63.5596 62.4974V60.5687C60.9254 59.9364 58.7501 58.0858 57.7051 55.5858C57.4805 55.0926 57.4659 54.5311 57.6636 54.0257C57.8614 53.5228 58.2545 53.12 58.7525 52.9125C59.2506 52.7025 59.8145 52.7049 60.3101 52.9174C60.8082 53.1298 61.1988 53.535 61.3917 54.0404C62.0948 55.7201 63.7403 56.8114 65.5592 56.809C67.7345 56.809 70.071 55.5687 70.071 52.81C70.071 52.0971 70.071 49.9218 65.11 48.811H65.0392C58.0811 47.185 57.0409 43.161 57.0409 40.898Z" fill="#76B228"/>
</svg>
