<svg width="80" height="81" viewBox="0 0 80 81" fill="none" xmlns="http://www.w3.org/2000/svg">
<path d="M43.0642 40.0656C46.3674 40.0607 49.3435 38.0685 50.6054 35.0167C51.8652 31.965 51.1645 28.4517 48.828 26.118C46.4916 23.7842 42.9784 23.0857 39.9293 24.3504C36.8775 25.6175 34.8878 28.5936 34.8878 31.8967C34.8976 36.4084 38.5525 40.0606 43.0642 40.0656ZM43.0642 27.7218C44.7512 27.7218 46.2697 28.7374 46.9143 30.2951C47.5613 31.8502 47.2024 33.6447 46.011 34.8361C44.8196 36.0274 43.0276 36.3839 41.47 35.7394C39.9123 35.0949 38.8967 33.5739 38.8967 31.8892C38.904 29.5919 40.7668 27.734 43.0642 27.7291L43.0642 27.7218ZM10.2642 52.8587L13.2012 53.8255V62.9442C13.206 66.8041 16.3335 69.9317 20.1937 69.9367H29.4418L31.2582 76.3355L31.2557 76.3379C31.993 78.8599 34.62 80.3223 37.1517 79.6168L65.9142 71.3699C68.4362 70.6326 69.8986 68.0056 69.193 65.4739L65.2404 51.6583C70.5236 45.7501 73.2067 37.9645 72.6817 30.057C72.2105 22.5158 68.8902 15.4351 63.3948 10.2501C57.8992 5.06456 50.6385 2.162 43.0823 2.13013H42.9944C35.1013 2.13013 27.5306 5.26488 21.9494 10.8458C16.3683 16.4268 13.2338 23.9976 13.2338 31.8908C13.2362 33.4996 12.8993 35.0914 12.2426 36.5612L7.64051 46.8837C7.1327 48.0214 7.13026 49.3202 7.63319 50.4604C8.13612 51.6005 9.09806 52.4746 10.2821 52.8676L10.2642 52.8587ZM11.2725 48.5057L15.8574 38.2251C16.7437 36.2451 17.2026 34.0991 17.2002 31.9288C17.2002 25.0951 19.9175 18.5401 24.7514 13.7088C29.5854 8.87725 36.1408 6.16506 42.9764 6.17006H43.0472C49.8172 6.1725 56.3141 8.84094 61.131 13.5994C65.9478 18.3553 68.6991 24.8201 68.7872 31.5876C68.8751 38.3576 66.2921 44.8907 61.5997 49.7688C61.1066 50.2839 60.9235 51.0212 61.1212 51.7049L65.3448 66.5705C65.4523 66.9855 65.213 67.4153 64.8004 67.5373L36.0579 75.7379C35.6502 75.838 35.2351 75.6085 35.1058 75.2106L32.8719 67.3687C32.6278 66.5142 31.8441 65.9234 30.953 65.921H20.2086C18.5558 65.921 17.2178 64.5831 17.2178 62.9302V52.3858C17.2154 51.5265 16.6661 50.7623 15.8482 50.4888L11.544 49.0655C11.4342 49.0313 11.3463 48.9508 11.2974 48.8458C11.251 48.7408 11.251 48.6188 11.2974 48.5138L11.2725 48.5057ZM24.7293 40.8494L26.1283 43.2493C27.2269 45.1585 29.5413 45.9983 31.6092 45.2415L33.3695 44.6019C34.4363 45.4149 35.6033 46.0887 36.8412 46.6087L37.161 48.4495C37.537 50.6199 39.4217 52.2019 41.6239 52.2019H44.4242C46.6263 52.2019 48.5111 50.6199 48.8895 48.4495L49.2093 46.6087C50.4471 46.0887 51.6117 45.4148 52.681 44.6019L54.4412 45.2415C56.5262 46.0472 58.8871 45.2122 60.0003 43.2738L61.3992 40.8739C62.5052 38.9671 62.0755 36.5404 60.3836 35.1292L58.9505 33.9281H58.9529C59.119 32.5999 59.119 31.2572 58.9529 29.9291L60.3861 28.7279H60.3836C62.0755 27.3167 62.5052 24.8924 61.3992 22.9857L60.0003 20.5858C58.9017 18.6766 56.5872 17.8368 54.5194 18.5936L52.7591 19.2332C51.6922 18.4202 50.5252 17.744 49.2874 17.224L48.9676 15.3759V15.3783C48.5916 13.2079 46.7069 11.6234 44.5047 11.6259H41.7044C39.5023 11.6234 37.6175 13.2079 37.2415 15.3783L36.9144 17.2264L36.912 17.224C35.6741 17.744 34.5071 18.4203 33.4403 19.2332L31.68 18.5936C29.6121 17.8368 27.3001 18.6766 26.2015 20.5858L24.8026 22.9857H24.8001C23.6966 24.8924 24.1263 27.3167 25.8158 28.7279L27.2 29.89C27.034 31.2181 27.034 32.5609 27.2 33.889L25.7669 35.0902H25.7693C24.0726 36.5062 23.6453 38.9403 24.761 40.8494H24.7293ZM31.2968 34.3063V34.3039C30.977 32.7219 30.977 31.0886 31.2968 29.5041C31.4458 28.7863 31.187 28.0417 30.6255 27.568L28.3208 25.6319C28.1206 25.4659 28.0693 25.1778 28.2012 24.9532L29.6001 22.5534C29.7319 22.3288 30.0054 22.2311 30.2495 22.3214L33.0815 23.3541V23.3517C33.7725 23.6056 34.5464 23.4591 35.0957 22.9684C36.3091 21.8941 37.7251 21.0763 39.2657 20.5685C39.9615 20.3366 40.4742 19.7409 40.6011 19.0158L41.1211 16.047V16.0495C41.1675 15.7931 41.3897 15.6076 41.6485 15.61H44.4488C44.7076 15.6076 44.9297 15.7931 44.9761 16.0495L45.4961 19.0182V19.0158C45.6231 19.7409 46.1358 20.3366 46.8316 20.5685C48.3696 21.0763 49.7881 21.8942 51.0015 22.9684C51.5508 23.4591 52.3248 23.6056 53.0157 23.3517L55.8477 22.319V22.3214C56.0918 22.2311 56.3653 22.3288 56.4971 22.5534L57.8961 24.9532C58.0279 25.1779 57.9766 25.4659 57.7764 25.6319L55.4718 27.568C54.9102 28.0416 54.6514 28.7862 54.8004 29.5041C55.1202 31.0886 55.1202 32.7218 54.8004 34.3039C54.6515 35.0241 54.9102 35.7687 55.4718 36.2399L57.7764 38.1686C57.9766 38.3371 58.0279 38.6227 57.8961 38.8497L56.4971 41.2496C56.3653 41.4718 56.0919 41.5719 55.8477 41.4816L53.0157 40.4489C52.3248 40.1974 51.5508 40.3463 51.0015 40.8322C49.7881 41.9088 48.3697 42.7242 46.8316 43.232C46.1358 43.4664 45.6231 44.0621 45.4961 44.7848L44.9761 47.7535C44.9297 48.0074 44.7076 48.193 44.4488 48.193H41.6485C41.3897 48.193 41.1675 48.0074 41.1211 47.7535L40.6011 44.7848C40.4741 44.0622 39.9615 43.4664 39.2657 43.232C37.7252 42.7242 36.3091 41.9088 35.0957 40.8322C34.5464 40.3439 33.7725 40.195 33.0815 40.4489L30.2495 41.4816C30.0054 41.5719 29.7319 41.4718 29.6001 41.2496L28.2012 38.8497C28.0693 38.6227 28.1206 38.3371 28.3208 38.1686L30.6255 36.2326C31.1943 35.7663 31.4604 35.0265 31.3213 34.3039L31.2968 34.3063Z" fill="#76B228"/>
</svg>
