<svg width="80" height="81" viewBox="0 0 80 81" fill="none" xmlns="http://www.w3.org/2000/svg">
<path d="M48.4474 29.233C47.3439 29.233 46.4479 28.337 46.4479 27.2335V23.9278C46.4479 22.8243 47.3439 21.9283 48.4474 21.9283C49.5533 21.9283 50.4493 22.8243 50.4493 23.9278V27.2335C50.4493 27.7633 50.2369 28.2712 49.8634 28.6471C49.4874 29.0231 48.9796 29.233 48.4474 29.233ZM46.4479 60.3218V63.625C46.4479 64.7285 47.3439 65.6245 48.4474 65.6245C49.5533 65.6245 50.4493 64.7285 50.4493 63.625V60.3218C50.4493 59.2158 49.5533 58.3198 48.4474 58.3198C47.3439 58.3198 46.4479 59.2158 46.4479 60.3218ZM68.296 45.7687C69.3995 45.7687 70.2955 44.8727 70.2955 43.7692C70.2955 42.6632 69.3995 41.7697 68.296 41.7697H64.9928C63.8868 41.7697 62.9933 42.6632 62.9933 43.7692C62.9933 44.8727 63.8868 45.7687 64.9928 45.7687H68.296ZM58.6966 54.0574C58.3207 54.4334 58.1082 54.9412 58.1082 55.4734C58.1082 56.0032 58.3207 56.5135 58.6966 56.8894L61.0331 59.2258C61.8143 60.0071 63.0814 60.0071 63.8651 59.2258C64.6463 58.4422 64.6463 57.1751 63.8651 56.3938L61.5286 54.0574C60.7474 53.2982 59.5047 53.3006 58.7283 54.0647L58.6966 54.0574ZM36.7116 34.0574C37.5222 34.0574 38.2521 33.5716 38.5622 32.822C38.8747 32.075 38.7014 31.2132 38.1276 30.6418L35.8254 28.3298C35.0417 27.5462 33.7746 27.5462 32.9934 28.3298C32.2097 29.1111 32.2097 30.3782 32.9934 31.1618L35.3298 33.4983L35.3274 33.4958C35.7058 33.8743 36.2185 34.0842 36.7531 34.0818L36.7116 34.0574ZM48.4085 37.4973C49.3729 37.4973 50.3226 37.722 51.1844 38.1541L60.1931 29.2016C60.9744 28.4203 62.2414 28.4203 63.0251 29.2016C63.8064 29.9828 63.8064 31.2499 63.0251 32.0336L54.0483 40.9692C55.2861 43.4765 54.7099 46.4966 52.6371 48.3742C50.5668 50.2492 47.5029 50.5251 45.1296 49.048C42.759 47.571 41.6531 44.6975 42.4246 42.0118C43.1961 39.3261 45.6546 37.4757 48.4475 37.4805L48.4085 37.4973ZM46.1453 43.7617C46.1453 44.6772 46.6971 45.5025 47.5418 45.8516C48.389 46.2032 49.3607 46.0103 50.0101 45.3609C50.6571 44.7139 50.8499 43.7397 50.5008 42.8951C50.1492 42.0479 49.324 41.4961 48.4085 41.4961C47.1682 41.5181 46.1746 42.5362 46.1844 43.7764L46.1453 43.7617ZM72.1291 14.0086C71.3454 13.2273 70.0783 13.2273 69.2971 14.0086C68.5134 14.7923 68.5134 16.0593 69.2971 16.8406L70.8962 18.4397L67.6491 21.7698C62.8591 17.5486 56.8166 15.0192 50.4491 14.5698V8.81784H56.2328C57.3363 8.81784 58.2323 7.92184 58.2323 6.81591C58.2323 5.71241 57.3363 4.81641 56.2328 4.81641H40.6641C39.5606 4.81641 38.6646 5.71241 38.6646 6.81591C38.6646 7.92184 39.5606 8.81784 40.6641 8.81784H46.4478V14.5698C36.394 15.2534 27.4021 21.071 22.6565 29.9604C22.134 30.9345 22.5027 32.1479 23.4768 32.6679C24.4509 33.1904 25.6619 32.8217 26.1843 31.8476C29.1799 26.2714 34.1656 22.0232 40.1468 19.9482C46.1307 17.8755 52.6737 18.1269 58.4818 20.6538C64.2875 23.1807 68.9312 27.7975 71.4893 33.5882C74.0504 39.3792 74.3384 45.9219 72.2999 51.9157C70.2589 57.9118 66.0399 62.9188 60.4786 65.9488C54.9196 68.9762 48.423 69.8038 42.2805 68.2632C41.2014 67.9971 40.1125 68.6538 39.844 69.733C39.5779 70.8097 40.2346 71.901 41.3113 72.1695C49.4238 74.2202 58.0276 72.6993 64.9419 67.9898C71.8582 63.2778 76.4238 55.8292 77.4807 47.5285C78.5403 39.2279 75.9914 30.8735 70.4813 24.5767L73.7601 21.2978L75.3593 22.897C76.1429 23.6782 77.41 23.6782 78.1913 22.897C78.9749 22.1133 78.9749 20.8462 78.1913 20.065L72.1291 14.0086ZM2.82907 59.8898L4.28413 58.674C4.11568 57.3239 4.11568 55.9592 4.28413 54.6091L2.82907 53.3933C1.13232 51.9748 0.702631 49.5383 1.81344 47.6242L3.19769 45.1853C4.30363 43.2712 6.62301 42.4265 8.70063 43.1858L10.4853 43.8328C11.5718 42.9954 12.7631 42.302 14.0303 41.7698L14.3574 39.8972C14.7554 37.7342 16.645 36.1643 18.8447 36.1692H21.6621C23.874 36.1668 25.7685 37.7562 26.1494 39.9363L26.4766 41.7698C27.729 42.2947 28.9106 42.9758 29.9897 43.801L31.7744 43.154H31.772C33.8521 42.3898 36.1787 43.2346 37.2847 45.1535L38.6934 47.5925C39.7993 49.5065 39.3721 51.9406 37.6777 53.3615L36.2227 54.5773H36.2202C36.3911 55.9275 36.3911 57.2922 36.2202 58.6398L37.6753 59.8557L37.6777 59.8581C39.3745 61.2765 39.8066 63.7082 38.7007 65.6247L37.292 68.0637V68.0661C36.1885 69.9802 33.8667 70.8225 31.7891 70.0656L30.0044 69.4186V69.4162C28.9252 70.2413 27.7461 70.925 26.4936 71.4498L26.1665 73.3127H26.164C25.7832 75.4928 23.8911 77.0822 21.6767 77.0797H18.8447C16.6328 77.0822 14.7383 75.4928 14.3574 73.3127L14.0302 71.4401C12.7778 70.9152 11.5962 70.234 10.5171 69.4089L8.73237 70.0558C6.65962 70.842 4.32075 70.0168 3.19769 68.1052L1.80606 65.6638C0.695248 63.7473 1.12744 61.3083 2.82907 59.8898ZM5.39744 50.2905L7.72657 52.2436L7.72413 52.2411C8.28809 52.7148 8.54688 53.457 8.39794 54.1772C8.07323 55.7812 8.07323 57.4365 8.39794 59.0405C8.54686 59.7607 8.28808 60.5053 7.72413 60.9765L5.39744 62.9614C5.18748 63.1323 5.13376 63.4301 5.26805 63.6645L6.67673 66.1035V66.1059C6.80857 66.3427 7.09421 66.4477 7.34811 66.3525L10.2045 65.3124C10.8955 65.061 11.6719 65.2074 12.2212 65.6982C13.4467 66.7749 14.8774 67.5927 16.4302 68.098C17.126 68.33 17.6387 68.9257 17.7656 69.6484L18.293 72.6415C18.3393 72.9077 18.5737 73.1005 18.8447 73.0981H21.6621C21.9355 73.1005 22.1699 72.9028 22.2138 72.6342L22.7412 69.641C22.8681 68.9184 23.3808 68.3227 24.0766 68.0883C25.6245 67.5829 27.0551 66.765 28.2759 65.6884C28.8276 65.2001 29.6016 65.0512 30.2925 65.3051L33.1489 66.3452C33.4028 66.4379 33.6885 66.333 33.8203 66.0961L35.1972 63.6645C35.334 63.4301 35.2778 63.1323 35.0679 62.9614L32.7974 61.0083C32.2334 60.5371 31.977 59.7925 32.126 59.0722C32.4507 57.4682 32.4507 55.8154 32.126 54.209C31.9795 53.4912 32.2383 52.7515 32.7974 52.2803L35.1265 50.3271L35.124 50.3296C35.334 50.1587 35.3877 49.8584 35.2534 49.624L33.8447 47.1851C33.7129 46.9483 33.4273 46.8433 33.1734 46.9361L30.3169 47.9761C29.626 48.23 28.8521 48.0835 28.3003 47.5928C27.0772 46.5161 25.6441 45.6983 24.0937 45.1929C23.3955 44.961 22.8828 44.3653 22.7559 43.6402L22.2285 40.647V40.6495C22.1797 40.3833 21.9478 40.1929 21.6768 40.1929H18.8448C18.5738 40.188 18.3394 40.3833 18.293 40.6495L17.7657 43.6426V43.6402C17.6387 44.3653 17.126 44.961 16.4302 45.1929C14.8775 45.6983 13.4469 46.5162 12.2212 47.5928C11.6719 48.0835 10.8955 48.23 10.2046 47.9761L7.35792 46.9361C7.10157 46.8433 6.81837 46.9483 6.6841 47.1851L5.27785 49.624C5.13869 49.8584 5.18997 50.1562 5.39749 50.3296L5.39744 50.2905ZM11.9968 56.6405C11.9968 53.3006 14.0086 50.2905 17.0944 49.0136C20.1779 47.7367 23.7301 48.4423 26.0913 50.8032C28.4526 53.164 29.1602 56.7162 27.8809 59.8C26.604 62.886 23.5938 64.8977 20.254 64.8977C15.6959 64.8928 12.0018 61.1986 11.9968 56.6405ZM15.9983 56.6405C15.9983 58.3617 17.0334 59.9144 18.6252 60.5736C20.2146 61.2328 22.0456 60.8666 23.2639 59.6507C24.4797 58.4325 24.8434 56.6038 24.1843 55.012C23.5276 53.4227 21.9748 52.3851 20.2536 52.3851C17.905 52.39 16.0007 54.2918 15.9983 56.6405Z" fill="#76B228"/>
</svg>
