<svg width="81" height="81" viewBox="0 0 81 81" fill="none" xmlns="http://www.w3.org/2000/svg">
<path d="M69.9407 10.8417C69.3279 8.32712 66.8036 6.7768 64.284 7.36762L38.1559 13.4882C37.0792 13.7421 36.4151 14.8212 36.669 15.8979C36.923 16.9722 37.9996 17.6387 39.0763 17.3847L65.2044 11.2324C65.3875 11.1884 65.578 11.2202 65.7391 11.3203C65.8978 11.4204 66.0101 11.579 66.0516 11.7597L75.651 52.6728C75.6949 52.8559 75.6632 53.0464 75.5655 53.2075C75.4654 53.3662 75.3067 53.4785 75.1236 53.52L25.3874 65.2413C24.4059 65.4781 23.7541 66.4107 23.8712 67.4141C23.986 68.4176 24.8332 69.1768 25.8439 69.1841C26.0001 69.1841 26.1564 69.1646 26.3077 69.128L31.9083 67.8072V67.8096C31.9864 67.8438 32.067 67.8731 32.1476 67.8975L57.0207 74.57C57.4113 74.6701 57.8141 74.7214 58.2194 74.7214C60.3581 74.714 62.2233 73.2687 62.7629 71.2009L65.6999 59.8584L76.0511 57.4585V57.4561C78.578 56.8604 80.1454 54.331 79.5546 51.8017L69.9407 10.8417ZM58.8932 70.1924C58.8468 70.3755 58.7272 70.5317 58.5636 70.6245C58.4074 70.7197 58.2218 70.749 58.0436 70.7051L40.0993 65.8882L61.3149 60.8882L58.8932 70.1924ZM51.3495 35.368C51.85 35.6927 52.431 35.8636 53.0292 35.8636C53.2538 35.8636 53.4784 35.8416 53.7005 35.7928L61.7012 34.0399C63.3882 33.6761 64.4624 32.0159 64.101 30.3289C63.459 27.3944 61.6767 24.8333 59.1474 23.212C56.6181 21.5909 53.5469 21.044 50.6124 21.6886C48.9254 22.0524 47.8512 23.7125 48.2125 25.3995L49.9655 33.4002C50.1413 34.2156 50.6415 34.9261 51.3495 35.368ZM56.95 26.5692H56.9476C58.327 27.4457 59.3695 28.7616 59.909 30.3046L53.7005 31.6889L52.3334 25.4559C53.9594 25.2948 55.5951 25.6854 56.972 26.5692L56.95 26.5692ZM45.4925 29.6406C44.8749 29.2719 44.1351 29.1742 43.4442 29.3696C39.5453 30.4902 36.4299 33.4321 35.0899 37.2627C33.7471 41.0933 34.3477 45.3364 36.6939 48.6471C39.0425 51.9552 42.8511 53.9205 46.9089 53.9205C47.5998 53.9278 48.2907 53.8766 48.9719 53.7691C52.2116 53.2027 55.0998 51.3936 57.0212 48.7228C58.9402 46.0543 59.7385 42.7389 59.2454 39.4896C59.1257 38.7889 58.7278 38.1688 58.1419 37.7684C57.5388 37.3583 56.7967 37.2142 56.0837 37.3681L48.4031 39.0477L46.7161 31.3696C46.5672 30.647 46.1228 30.022 45.493 29.6411L45.4925 29.6406ZM48.0438 43.1999L55.3875 41.6008C55.3265 44.6843 53.6053 47.4919 50.8856 48.9471C48.1683 50.3997 44.8749 50.2703 42.2775 48.6101C39.6799 46.9475 38.1832 44.013 38.3639 40.9345C38.5446 37.8559 40.3757 35.1166 43.149 33.7689L44.7482 41.1126C44.9044 41.828 45.339 42.4505 45.9567 42.846C46.5743 43.2391 47.3214 43.3734 48.0367 43.2171L48.0438 43.1999ZM12.5407 72.5212C13.4415 72.5212 14.3155 72.2014 15.004 71.6154C19.9552 67.4236 23.4559 61.7742 25.004 55.4729L33.4515 19.9848C34.0277 17.6655 33.6469 15.2143 32.3944 13.1804C31.142 11.1443 29.1254 9.69899 26.7963 9.16918C24.4843 8.67845 22.0746 9.10814 20.075 10.3704C18.078 11.6326 16.6522 13.6223 16.1004 15.9197L15.4925 18.3757L15.1409 19.8626L10.9564 18.8225V18.8249C9.95782 18.5784 8.9007 18.7395 8.01938 19.2717C7.13801 19.8039 6.5057 20.6658 6.25913 21.6643L2.15513 38.1855C1.90367 39.2475 2.55308 40.3169 3.61263 40.5854C3.76888 40.622 3.93002 40.6415 4.09115 40.6415C5.00915 40.6391 5.80746 40.0117 6.02721 39.1206L10.0995 22.7218L14.2206 23.7447L7.72371 51.2079C6.14902 57.4966 6.60065 64.1204 9.01277 70.136C9.58162 71.5813 10.9781 72.5334 12.5308 72.5359L12.5407 72.5212ZM11.6129 52.1699L19.396 19.3699L20.004 16.9212C20.6143 14.2625 23.2266 12.5731 25.9 13.1052C27.1841 13.3982 28.295 14.1966 28.9835 15.3196C29.672 16.4427 29.877 17.7952 29.5547 19.0721L21.1147 54.5702C19.7817 59.9413 16.8179 64.7677 12.6285 68.3858C10.6217 63.2149 10.2653 57.5481 11.6129 52.1699Z" fill="#76B228"/>
</svg>
