<?xml version="1.0" encoding="utf-8"?><svg xmlns="http://www.w3.org/2000/svg" xmlns:xlink="http://www.w3.org/1999/xlink"><symbol fill="none" viewBox="0 0 11 8" id="chevron" xmlns="http://www.w3.org/2000/svg"><path d="m2 2.304 3.5 3.5 3.5-3.5" stroke="#E56B45" stroke-width="2" stroke-linecap="square"/></symbol><symbol fill="none" viewBox="0 0 60 61" id="i-adapt" xmlns="http://www.w3.org/2000/svg"><path d="M54.509 52.513a4.705 4.705 0 0 0-4.133-3.885l-11.026-1.16a1.559 1.559 0 0 1-1.398-1.553v-5.642c2.52-2.179 4.41-5.222 5.323-8.381a4.67 4.67 0 0 0 1.45-.432c.902-.448 2.097-1.421 2.652-3.52.93-3.512.246-6.033-1.88-6.91a4.002 4.002 0 0 0-1.71-.29c-.825-7.47-6.76-13.283-13.942-13.283S16.728 13.27 15.903 20.74a4.002 4.002 0 0 0-1.711.29c-2.127.877-2.812 3.398-1.88 6.91.558 2.099 1.75 3.072 2.653 3.52.45.224.942.365 1.45.432.914 3.16 2.803 6.202 5.323 8.381v5.642c0 .801-.601 1.471-1.4 1.553l-11.025 1.16a4.705 4.705 0 0 0-4.134 3.885l-1.195 7.082a.936.936 0 1 0 1.85.31l1.192-7.081a2.82 2.82 0 0 1 2.48-2.33l11.024-1.16a3.431 3.431 0 0 0 3.08-3.419v-4.257c1.865 1.155 3.976 1.843 6.233 1.843 2.255 0 4.367-.69 6.233-1.845v4.259a3.43 3.43 0 0 0 3.078 3.419l11.026 1.16a2.822 2.822 0 0 1 2.48 2.33l1.192 7.082a.94.94 0 0 0 1.08.769.937.937 0 0 0 .77-1.08l-1.193-7.082ZM43.742 24.735c.092-.718.136-1.427.14-2.112.036-.002.074-.012.11-.012.273 0 .54.048.786.151 1.65.681 1.097 3.513.785 4.697-.302 1.14-.865 1.92-1.672 2.32-.051.025-.11.037-.164.058.105-.698.16-1.397.16-2.082 0-.593-.042-1.192-.127-1.78a4.592 4.592 0 0 1-.018-1.24ZM15.96 29.837c-.054-.023-.113-.033-.164-.058-.807-.4-1.37-1.18-1.674-2.32-.315-1.184-.866-4.014.784-4.697.248-.103.514-.15.787-.15.036 0 .072.009.108.01.004.686.05 1.395.141 2.113.05.397.044.814-.017 1.24-.084.59-.127 1.189-.127 1.78.001.685.057 1.383.162 2.082Zm13.884 11.789c-6.741 0-12.167-7.588-12.167-13.87 0-.504.036-1.014.109-1.515.084-.594.091-1.18.02-1.742-.085-.674-.129-1.34-.129-1.977 0-7.273 5.459-13.19 12.167-13.19 6.71 0 12.167 5.917 12.167 13.19 0 .637-.044 1.301-.13 1.977-.07.562-.065 1.15.021 1.743.07.5.109 1.01.109 1.515 0 6.281-5.428 13.869-12.167 13.869Zm3.719-7.17c0 1.349-1.565 2.327-3.72 2.327-2.153 0-3.718-.978-3.718-2.327A.94.94 0 0 1 28 34.395c.131.168.784.515 1.843.515s1.711-.345 1.845-.513a.938.938 0 0 1 1.874.059ZM17.127 4.896a1.048 1.048 0 1 1 2.096 0 1.048 1.048 0 0 1-2.096 0ZM7.362 41.034a1.048 1.048 0 1 1 2.096.001 1.048 1.048 0 0 1-2.096-.001Zm44.371-.546a1.048 1.048 0 1 1 2.096.001 1.048 1.048 0 0 1-2.096 0Zm7.346-18.015c0 .52-.42.94-.939.94h-1.502v1.5a.938.938 0 1 1-1.877 0l.004-1.5h-1.502a.94.94 0 0 1 0-1.878h1.502v-1.502a.938.938 0 1 1 1.877 0v1.502h1.502a.94.94 0 0 1 .935.938ZM39.649 4.067c0-.519.42-.939.938-.939h1.502l-.002-1.501a.938.938 0 1 1 1.877 0v1.501h1.502a.94.94 0 0 1 0 1.878h-1.502v1.501a.938.938 0 1 1-1.877 0V5.004h-1.502a.937.937 0 0 1-.937-.937ZM4.186 24.975a.938.938 0 0 1-.939-.94v-1.5l-1.501.001a.938.938 0 1 1 0-1.877h1.501v-1.5a.938.938 0 1 1 1.878 0v1.502h1.501a.938.938 0 1 1 0 1.877H5.126v1.502a.94.94 0 0 1-.939.935Z" fill="#F7B441"/></symbol><symbol fill="none" viewBox="0 0 12 13" id="i-arrow" xmlns="http://www.w3.org/2000/svg"><path d="M.801 6.57h10m0 0-5-5m5 5-5 5" stroke="#1529A0" stroke-width="1.5" stroke-linecap="square"/></symbol><symbol fill="none" viewBox="0 0 24 25" id="i-checkmark" xmlns="http://www.w3.org/2000/svg"><path d="m9 12.713 2 2 4.5-4.5m2.401-4.502c.206.498.601.894 1.1 1.1l1.744.724a2.033 2.033 0 0 1 1.1 2.655l-.722 1.744a2.03 2.03 0 0 0 0 1.557l.722 1.743a2.033 2.033 0 0 1-1.1 2.657L19 18.613a2.033 2.033 0 0 0-1.1 1.1l-.723 1.745a2.033 2.033 0 0 1-2.656 1.1l-1.744-.723a2.033 2.033 0 0 0-1.555.001l-1.745.722a2.033 2.033 0 0 1-2.654-1.1L6.1 19.714a2.032 2.032 0 0 0-1.1-1.1l-1.744-.723a2.032 2.032 0 0 1-1.1-2.655l.721-1.744a2.033 2.033 0 0 0 0-1.555l-.722-1.747a2.033 2.033 0 0 1 1.1-2.656L5 6.81c.498-.205.893-.6 1.1-1.097l.723-1.746a2.033 2.033 0 0 1 2.656-1.1l1.744.723a2.033 2.033 0 0 0 1.555-.002l1.746-.72a2.033 2.033 0 0 1 2.655 1.1l.723 1.746v-.003Z" stroke="#76B228" stroke-width="2" stroke-linecap="round" stroke-linejoin="round"/></symbol><symbol fill="none" viewBox="0 0 17 17" id="i-email" xmlns="http://www.w3.org/2000/svg"><path d="m15.134 12.133-4.428-4m-3.81 0-4.428 4M2.134 4.8l5.443 3.81c.441.309.662.463.901.523.212.053.434.053.645 0 .24-.06.46-.214.901-.523l5.444-3.81M5.333 13.467h6.934c1.12 0 1.68 0 2.107-.218a2 2 0 0 0 .874-.874c.218-.428.218-.988.218-2.108V6c0-1.12 0-1.68-.218-2.108a2 2 0 0 0-.873-.874c-.428-.218-.988-.218-2.108-.218H5.333c-1.12 0-1.68 0-2.108.218a2 2 0 0 0-.874.874c-.218.428-.218.988-.218 2.108v4.267c0 1.12 0 1.68.218 2.108a2 2 0 0 0 .874.874c.428.218.988.218 2.108.218Z" stroke="#F7F0E7" stroke-linecap="round" stroke-linejoin="round"/></symbol><symbol fill="none" viewBox="0 0 61 61" id="i-occ" xmlns="http://www.w3.org/2000/svg"><path d="M46.913 43.217h4.928c.49 0 .882-.39.882-.883 0-.49-.39-.883-.882-.883h-4.928c-.49 0-.882.39-.882.883 0 .49.4.883.882.883ZM46.913 54.468h4.928c.49 0 .882-.39.882-.883 0-.49-.39-.882-.882-.882h-4.928a.883.883 0 0 0 0 1.765Z" fill="#17616E"/><path d="M56.859 25.589a2.828 2.828 0 0 0 2.818-2.827l.002-14.184a2.828 2.828 0 0 0-2.819-2.827H37.25a2.828 2.828 0 0 0-2.818 2.827V22.76a2.828 2.828 0 0 0 2.818 2.827h5.746v3.673l-11.428.002-.39-4.973c-.181-2.273-2.11-4.063-4.39-4.063H19.56c-2.281 0-4.21 1.781-4.39 4.063l-.39 4.973H4.176a2.648 2.648 0 0 0-2.645 2.646v25.21a2.648 2.648 0 0 0 2.645 2.645l3.155-.002a2.648 2.648 0 0 0 2.646-2.645V37.697h4.146l-.083 1.009c-.055.736.2 1.463.69 2 .5.536 1.21.845 1.938.845h5.617v2.137h-6.818a2.14 2.14 0 0 0-2.137 2.137 3.53 3.53 0 0 0 3.526 3.527h5.373v3.955l-4.955 4.954a.876.876 0 0 0 0 1.246c.346.346.9.346 1.245 0l3.71-3.71.002 3.072c0 .491.39.883.882.883.49 0 .883-.39.883-.883v-3.072l3.71 3.7c.172.172.399.255.618.255a.876.876 0 0 0 .628-1.5L24 53.307v-3.965h5.372a3.53 3.53 0 0 0 3.527-3.526 2.14 2.14 0 0 0-2.137-2.137h-6.702v-2.137h5.618c.736 0 1.444-.31 1.937-.846.5-.536.754-1.273.69-2l-.082-1.008h7.474v19.409a2.648 2.648 0 0 0 2.646 2.646h14.69a2.648 2.648 0 0 0 2.646-2.646V31.896a2.648 2.648 0 0 0-2.645-2.646h-5.928v-3.673l5.753.002v.01ZM31.132 45.824c0 .972-.79 1.763-1.763 1.763l-12.491.002a1.765 1.765 0 0 1-1.764-1.764.37.37 0 0 1 .374-.373H30.77c.2 0 .362.163.362.372Zm5.054-23.062V8.578c0-.591.472-1.064 1.054-1.064h19.61c.582 0 1.054.482 1.054 1.064V22.76c0 .591-.472 1.064-1.055 1.064h-6.626l-6.345.001h-6.627a1.073 1.073 0 0 1-1.065-1.063ZM8.215 57.116c0 .481-.39.882-.883.882l-3.155-.001a.883.883 0 0 1-.882-.883l.001-19.416h4.919v19.418Zm.88-21.182H3.296v-4.036c0-.481.39-.882.883-.882h10.474l-.383 4.918H9.095Zm21.228 3.582a.882.882 0 0 1-.647.282h-13a.873.873 0 0 1-.646-.282.82.82 0 0 1-.227-.663l.153-1.928c0-.01.01-.019.01-.037l.518-6.672v-.019l.454-5.764a2.66 2.66 0 0 1 2.637-2.437h7.227a2.66 2.66 0 0 1 2.637 2.437l.454 5.773v.01l.518 6.672c0 .009.009.018.009.027l.154 1.937a.934.934 0 0 1-.251.664Zm27.59 7.445H41.459v-9.264h16.454v9.264Zm0 10.155c0 .481-.39.882-.883.882l-14.697-.002a.883.883 0 0 1-.883-.882V48.73h16.454v8.385h.009Zm0-25.21v4.035l-17.336.002h-8.482l-.383-4.918h25.32c.482 0 .88.39.88.88Zm-8.571-2.644H44.76v-3.673h4.58v3.673ZM9.686 17.915c4.492 0 8.146-3.655 8.146-8.147 0-4.491-3.654-8.146-8.146-8.146-4.492 0-8.146 3.655-8.146 8.146 0 4.494 3.654 8.147 8.146 8.147Zm0-14.535c3.518 0 6.39 2.864 6.39 6.39a6.394 6.394 0 0 1-6.39 6.39c-3.517 0-6.39-2.863-6.39-6.39a6.394 6.394 0 0 1 6.39-6.39Z" fill="#17616E"/><path d="M9.686 11.197h2.346c.49 0 .882-.39.882-.883 0-.49-.39-.883-.882-.883h-1.463l-.002-3.206c0-.49-.39-.882-.883-.882-.49 0-.882.39-.882.882v4.1a.878.878 0 0 0 .884.872Z" fill="#17616E"/></symbol><symbol fill="none" viewBox="0 0 61 61" id="i-present" xmlns="http://www.w3.org/2000/svg"><path d="M14.91 22.752H9.012a2.781 2.781 0 0 0-2.781 2.782v5.9a2.781 2.781 0 0 0 2.781 2.78h5.9a2.781 2.781 0 0 0 2.781-2.78v-5.9a2.787 2.787 0 0 0-2.781-2.782Zm1.019 8.682c0 .563-.454 1.018-1.018 1.018h-5.9a1.016 1.016 0 0 1-1.018-1.018v-5.9c0-.564.454-1.018 1.018-1.018h5.9c.564 0 1.018.454 1.018 1.018v5.9ZM29.537 22.752h-5.9a2.781 2.781 0 0 0-2.78 2.782v5.9a2.781 2.781 0 0 0 2.78 2.78h5.9a2.781 2.781 0 0 0 2.782-2.78v-5.9a2.78 2.78 0 0 0-2.782-2.782Zm1.018 8.682c0 .563-.454 1.018-1.018 1.018h-5.9a1.016 1.016 0 0 1-1.018-1.018v-5.9c0-.564.455-1.018 1.019-1.018h5.9c.563 0 1.017.454 1.017 1.018v5.9ZM44.174 34.215a2.781 2.781 0 0 0 2.782-2.782v-5.9a2.781 2.781 0 0 0-2.782-2.78h-5.9a2.781 2.781 0 0 0-2.78 2.78v5.9a2.781 2.781 0 0 0 2.78 2.782h5.9Zm-6.92-2.782v-5.9c0-.563.455-1.018 1.019-1.018h5.9c.563 0 1.017.455 1.017 1.019v5.9c0 .563-.454 1.017-1.018 1.017h-5.9a1.023 1.023 0 0 1-1.017-1.018ZM14.91 37.124H9.012a2.781 2.781 0 0 0-2.781 2.782v5.9a2.781 2.781 0 0 0 2.781 2.78h5.9a2.781 2.781 0 0 0 2.781-2.78v-5.9a2.787 2.787 0 0 0-2.781-2.782Zm1.019 8.683c0 .564-.454 1.018-1.018 1.018h-5.9a1.016 1.016 0 0 1-1.018-1.018v-5.9c0-.564.454-1.018 1.018-1.018h5.9c.564 0 1.018.454 1.018 1.018v5.9ZM29.537 37.124h-5.9a2.781 2.781 0 0 0-2.78 2.782v5.9a2.781 2.781 0 0 0 2.78 2.78h5.9a2.781 2.781 0 0 0 2.782-2.78v-5.9a2.78 2.78 0 0 0-2.782-2.782Zm1.018 8.683c0 .564-.454 1.018-1.018 1.018h-5.9a1.016 1.016 0 0 1-1.018-1.018v-5.9c0-.564.455-1.018 1.019-1.018h5.9c.563 0 1.017.454 1.017 1.018v5.9Z" fill="#E56B45"/><path d="M57.42 54.88c0-.009 0-.009.01-.018a11.281 11.281 0 0 0 2.045-6.51c0-4.835-3.1-9.173-7.61-10.762l.002-18.408v-6.7c0-2.49-2.027-4.51-4.51-4.51h-2.091c-.09-3.59-2.126-6.374-4.708-6.374-2.572 0-4.608 2.783-4.71 6.374h-4.544c-.1-3.59-2.128-6.374-4.71-6.374-2.581 0-4.608 2.782-4.709 6.372H17.34c-.11-3.588-2.136-6.372-4.718-6.372s-4.609 2.783-4.71 6.374h-2.09a4.525 4.525 0 0 0-4.52 4.517v36.572c0 2.481 2.027 4.501 4.51 4.501h32.082c.227.445.472.883.782 1.31.009.008.009.018.018.027.018.018.028.036.046.055.046.073.091.135.145.209l.082.11a11.296 11.296 0 0 0 2.79 2.6c.12.082.237.162.356.236.055.036.119.064.172.1.855.5 1.782.901 2.754 1.165.009 0 .027.01.036.01.328.09.654.162.991.217H46.094c.036.01.073.01.11.018a10.158 10.158 0 0 0 1.855.156h.018c.518 0 .954-.027 1.354-.073.855-.101 1.681-.31 2.472-.6 2.064-.746 3.91-2.064 5.246-3.837l.064-.092.064-.091c.037-.046.064-.092.092-.128a.51.51 0 0 0 .051-.074Zm.3-6.534c0 1.61-.398 3.164-1.164 4.572a11.664 11.664 0 0 0-5.445-3.192 4.163 4.163 0 0 0 1.128-2.836 4.199 4.199 0 0 0-4.192-4.191 4.199 4.199 0 0 0-4.191 4.19c0 1.101.436 2.092 1.128 2.837a11.753 11.753 0 0 0-5.446 3.192 9.424 9.424 0 0 1-1.174-4.574c0-5.327 4.337-9.674 9.674-9.674.936 0 1.846.128 2.692.383h.01c4.117 1.201 6.981 5.01 6.981 9.292ZM55.323 54.7c-.1.118-.2.236-.31.355-.082.091-.172.172-.263.254-.154.145-.3.291-.463.427l-.11.082a9.664 9.664 0 0 1-4.973 2.128 9.274 9.274 0 0 1-.909.064c-.082 0-.153.01-.245.01h-.145c-.355-.01-.699-.028-1.018-.065-.128-.018-.263-.036-.399-.064-.036-.01-.073-.01-.119-.018-.3-.055-.591-.12-.882-.2-.019-.009-.037-.009-.046-.018a11.62 11.62 0 0 1-.8-.255c-.046-.018-.083-.036-.128-.055a8.995 8.995 0 0 1-.682-.3 1.936 1.936 0 0 1-.153-.082c-.21-.11-.418-.218-.62-.337-.054-.037-.11-.073-.153-.1-.2-.13-.39-.255-.573-.39-.055-.038-.1-.083-.145-.12a12.579 12.579 0 0 1-.536-.445 12.948 12.948 0 0 1-.635-.628c-.047-.046-.083-.1-.129-.145-.11-.119-.209-.245-.31-.373a10.011 10.011 0 0 1 7.5-3.336c2.91 0 5.6 1.208 7.5 3.336-.1.093-.173.185-.254.275Zm-9.692-7.8a2.433 2.433 0 0 1 2.428-2.429 2.433 2.433 0 0 1 2.428 2.428 2.428 2.428 0 1 1-4.856 0ZM40.558 3.363c1.546 0 2.855 2.082 2.946 4.609h-5.9c.1-2.518 1.409-4.61 2.954-4.61Zm-13.963 0c1.545 0 2.854 2.082 2.946 4.609h-5.9c.09-2.518 1.408-4.61 2.954-4.61Zm-13.973 0c1.545 0 2.854 2.082 2.946 4.609h-5.9c.099-2.518 1.408-4.61 2.954-4.61Zm-6.81 6.372h2.2c.472 2.981 2.317 5.154 4.599 5.154.49 0 .882-.39.882-.882 0-.49-.39-.883-.882-.883-1.291 0-2.419-1.444-2.809-3.39h12.182c.472 2.98 2.318 5.154 4.6 5.154.49 0 .882-.39.882-.883 0-.49-.39-.883-.883-.883-1.29 0-2.418-1.444-2.808-3.39h12.181c.473 2.98 2.319 5.154 4.6 5.154.49 0 .883-.39.883-.883 0-.49-.39-.882-.883-.882-1.29 0-2.419-1.445-2.809-3.392h9.619a2.748 2.748 0 0 1 2.745 2.745v5.801l-47.044.006V12.48a2.754 2.754 0 0 1 2.745-2.745Zm.01 42.072a2.75 2.75 0 0 1-2.755-2.745V20.054h47.044v17.045c-.036-.009-.082-.009-.119-.018a10.66 10.66 0 0 0-.782-.11c-.064-.01-.119-.018-.181-.018a11.716 11.716 0 0 0-.982-.046c-6.31 0-11.436 5.127-11.436 11.436 0 .365.027.727.055 1.092.009.1.018.2.037.3.036.282.082.564.135.837.018.082.027.172.055.254.073.328.154.647.264.963H5.82l.001.02Z" fill="#E56B45"/><path d="M38.837 30.725a.88.88 0 0 0 .628.254.887.887 0 0 0 .628-.254l1.137-1.137 1.137 1.137a.88.88 0 0 0 .629.254.876.876 0 0 0 .628-1.5l-1.138-1.136 1.138-1.137a.876.876 0 0 0 0-1.245.876.876 0 0 0-1.246 0l-1.137 1.137-1.137-1.137a.876.876 0 0 0-1.245 0 .877.877 0 0 0 0 1.245l1.137 1.137-1.137 1.137a.86.86 0 0 0-.022 1.245ZM28.973 40.47a.877.877 0 0 0-1.245 0l-1.137 1.137-1.137-1.137a.877.877 0 0 0-1.245 0 .876.876 0 0 0 0 1.245l1.137 1.137-1.137 1.137a.876.876 0 0 0 .628 1.5.887.887 0 0 0 .628-.255l1.137-1.137 1.137 1.137a.88.88 0 0 0 .628.255.876.876 0 0 0 .628-1.5l-1.137-1.137 1.137-1.137a.897.897 0 0 0-.022-1.245ZM14.347 26.098a.876.876 0 0 0-1.245 0l-1.137 1.137-1.137-1.137a.876.876 0 0 0-1.245 0 .876.876 0 0 0 0 1.245l1.137 1.137-1.137 1.137a.876.876 0 0 0 .628 1.5.886.886 0 0 0 .628-.255l1.137-1.137 1.137 1.137a.88.88 0 0 0 .628.255.877.877 0 0 0 .628-1.5l-1.137-1.137 1.137-1.137a.897.897 0 0 0-.022-1.245Z" fill="#E56B45"/></symbol><symbol fill="none" viewBox="0 0 60 61" id="i-renew" xmlns="http://www.w3.org/2000/svg"><g clip-path="url(#ha)"><mask id="hb" maskUnits="userSpaceOnUse" x=".211" y="-.225" width="60" height="62" fill="#000"><path fill="#fff" d="M.211-.225h60v62h-60z"/><path d="M24.468 12.31a2.593 2.593 0 0 0 2.59-2.59 2.588 2.588 0 0 0-1.93-2.495v-.529a.66.66 0 0 0-1.319 0v.529a2.586 2.586 0 0 0-1.93 2.495 2.593 2.593 0 0 0 2.59 2.59Zm0-3.863c.702 0 1.273.571 1.273 1.273s-.57 1.273-1.273 1.273a1.274 1.274 0 0 1-1.272-1.273c0-.702.57-1.273 1.272-1.273Zm11.638 4.196a2.593 2.593 0 0 0 2.59-2.59 2.588 2.588 0 0 0-1.93-2.494v-.53a.66.66 0 0 0-1.32 0v.53a2.586 2.586 0 0 0-1.93 2.495 2.593 2.593 0 0 0 2.59 2.59Zm0-3.862c.701 0 1.273.571 1.273 1.273 0 .701-.572 1.272-1.273 1.272a1.274 1.274 0 0 1-1.273-1.272c0-.702.571-1.273 1.273-1.273Zm-14.29 22.567v-.529a.66.66 0 0 0-1.319 0v.53a2.586 2.586 0 0 0-1.93 2.494 2.593 2.593 0 0 0 2.59 2.59 2.593 2.593 0 0 0 2.59-2.59c0-1.2-.823-2.201-1.93-2.495Zm-.66 3.766a1.274 1.274 0 0 1-1.272-1.273c0-.702.571-1.273 1.273-1.273.701 0 1.273.572 1.273 1.273a1.276 1.276 0 0 1-1.273 1.273ZM38.179 18.82v.529a2.586 2.586 0 0 0-1.93 2.493 2.593 2.593 0 0 0 2.59 2.59 2.593 2.593 0 0 0 2.59-2.59c0-1.198-.823-2.2-1.93-2.493v-.529a.66.66 0 0 0-1.32 0Zm1.93 3.022c0 .702-.57 1.273-1.272 1.273a1.274 1.274 0 0 1-1.273-1.273c0-.702.571-1.273 1.273-1.273a1.276 1.276 0 0 1 1.273 1.273Zm-18.951 2.475a2.55 2.55 0 0 0 2.547-2.547 2.541 2.541 0 0 0-1.888-2.45v-.506a.66.66 0 0 0-1.319 0v.507a2.543 2.543 0 0 0-1.888 2.449 2.55 2.55 0 0 0 2.548 2.547Zm0-3.778c.677 0 1.23.551 1.23 1.23 0 .678-.55 1.231-1.23 1.231-.678 0-1.23-.55-1.23-1.23 0-.678.552-1.23 1.23-1.23Zm17.538 10.845v-.681a.66.66 0 0 0-1.319 0v.681a2.88 2.88 0 0 0-2.221 2.797 2.885 2.885 0 0 0 2.88 2.881 2.885 2.885 0 0 0 2.882-2.88 2.88 2.88 0 0 0-2.222-2.798Zm-.66 4.36c-.86 0-1.562-.702-1.562-1.563 0-.86.702-1.562 1.563-1.562a1.561 1.561 0 1 1 0 3.124ZM58.7 59.57c-1.842-1.265-5.825-2.312-11.122-3.03a3.55 3.55 0 0 0 .442-1.719 3.58 3.58 0 0 0-4.994-3.281 4.333 4.333 0 0 0-.708-1.042l.402-.494a.66.66 0 0 0-1.022-.833l-.402.495a4.418 4.418 0 0 0-2.712-.603 4.413 4.413 0 0 0-2.994 1.612 4.453 4.453 0 0 0-.48 4.896c-.87-.026-1.754-.046-2.646-.058l-.155-13.431c7.976-.857 14.144-6.285 14.144-12.836 0-2.343-.804-4.633-2.328-6.65a9.383 9.383 0 0 0 .533-3.108c0-2.82-1.289-5.513-3.637-7.628a7.205 7.205 0 0 0 .325-2.131c0-4.938-5.044-8.955-11.247-8.955-6.2 0-11.248 4.017-11.248 8.955 0 .714.109 1.43.326 2.131-2.348 2.113-3.637 4.808-3.637 7.628 0 1.056.179 2.1.533 3.109-1.524 2.014-2.329 4.304-2.329 6.649 0 6.522 6.113 11.93 14.037 12.825l-.155 13.443c-1.882.028-3.712.089-5.48.18.518-.745.821-1.648.821-2.62a4.614 4.614 0 0 0-3.953-4.559v-.691a.66.66 0 0 0-1.319 0v.691a4.614 4.614 0 0 0-3.952 4.558c0 1.23.486 2.347 1.274 3.175-6.49.708-11.41 1.874-13.52 3.324a.66.66 0 0 0-.17.916.66.66 0 0 0 .915.17c.271-.188.6-.367.979-.544 4.214-1.968 14.844-3.299 26.872-3.299 12.027 0 22.657 1.331 26.871 3.3.378.176.708.357.98.542.299.207.711.131.916-.169a.65.65 0 0 0-.16-.918Zm-41.72-3.517a3.29 3.29 0 0 1-1.912-2.98 3.3 3.3 0 0 1 2.634-3.226v.687a.66.66 0 0 0 1.319 0v-.687a3.292 3.292 0 0 1 1.18 5.957c-1.104.072-2.18.155-3.221.25Zm15.065-37.03 2.162-1.967a.189.189 0 0 1 .261.008l.447.446a.188.188 0 0 1 .006.262l-2.854 3.134-.022-1.884Zm4.482 8.199-4.333 4.689-.028-2.468 3.42-3.162a.189.189 0 0 1 .261.006l.674.675a.182.182 0 0 1 .006.26Zm-21.459 2.024c0-2.155.784-4.272 2.27-6.12a.655.655 0 0 0 .099-.655 8.056 8.056 0 0 1-.576-2.982c0-2.56 1.247-5.017 3.511-6.917a.659.659 0 0 0 .193-.736 5.989 5.989 0 0 1-.392-2.105c0-4.212 4.453-7.638 9.928-7.638 5.475 0 9.929 3.426 9.929 7.638 0 .702-.133 1.412-.392 2.107a.66.66 0 0 0 .193.736c2.264 1.902 3.51 4.36 3.51 6.917a8.072 8.072 0 0 1-.575 2.982.657.657 0 0 0 .1.653c1.486 1.85 2.27 3.967 2.27 6.12 0 5.841-5.587 10.691-12.841 11.515l-.08-6.935 5.278-5.71a1.503 1.503 0 0 0-.04-2.089l-.674-.675a1.499 1.499 0 0 0-2.087-.04l-2.546 2.354-.056-4.828 3.804-4.18a1.503 1.503 0 0 0-.048-2.079l-.447-.446a1.503 1.503 0 0 0-2.079-.048l-1.294 1.178-.06-5.296a1.923 1.923 0 0 0-1.917-1.894v-.002a1.923 1.923 0 0 0-1.916 1.894l-.06 5.296-1.295-1.178a1.505 1.505 0 0 0-2.08.048l-.445.446a1.503 1.503 0 0 0-.049 2.08l3.804 4.181-.056 4.828-2.545-2.353a1.505 1.505 0 0 0-2.09.04l-.673.676a1.502 1.502 0 0 0-.04 2.09l5.278 5.71-.08 6.92c-7.203-.86-12.734-5.69-12.734-11.503Zm12.985-10.223-.022 1.881-2.853-3.134a.188.188 0 0 1 .006-.261l.446-.447a.19.19 0 0 1 .261-.008l2.162 1.969Zm-.12 10.416-.029 2.47-4.333-4.69a.188.188 0 0 1 .006-.26l.674-.674a.198.198 0 0 1 .134-.056c.047 0 .093.016.13.05l3.417 3.16Zm2.17 26.058c-.385 0-.77.002-1.154.004l.501-43.522a.599.599 0 0 1 1.196 0l.503 43.522c-.348-.002-.696-.004-1.045-.004Zm6.684.137a3.097 3.097 0 0 1-.173-4.126 3.1 3.1 0 0 1 3.836-.802l-.39.476a.66.66 0 0 0 1.021.833l.392-.481a3.11 3.11 0 0 1 .67 1.633 3.107 3.107 0 0 1-1.1 2.706 153.967 153.967 0 0 0-4.256-.24Zm5.903.373c.601-.868.874-1.91.766-2.971-.008-.072-.022-.143-.032-.215a2.214 2.214 0 0 1 1.021-.256 2.261 2.261 0 0 1 2.258 2.258c0 .591-.233 1.128-.607 1.53a100.41 100.41 0 0 0-3.406-.346Z"/></mask><path d="M24.468 12.31a2.593 2.593 0 0 0 2.59-2.59 2.588 2.588 0 0 0-1.93-2.495v-.529a.66.66 0 0 0-1.319 0v.529a2.586 2.586 0 0 0-1.93 2.495 2.593 2.593 0 0 0 2.59 2.59Zm0-3.863c.702 0 1.273.571 1.273 1.273s-.57 1.273-1.273 1.273a1.274 1.274 0 0 1-1.272-1.273c0-.702.57-1.273 1.272-1.273Zm11.638 4.196a2.593 2.593 0 0 0 2.59-2.59 2.588 2.588 0 0 0-1.93-2.494v-.53a.66.66 0 0 0-1.32 0v.53a2.586 2.586 0 0 0-1.93 2.495 2.593 2.593 0 0 0 2.59 2.59Zm0-3.862c.701 0 1.273.571 1.273 1.273 0 .701-.572 1.272-1.273 1.272a1.274 1.274 0 0 1-1.273-1.272c0-.702.571-1.273 1.273-1.273Zm-14.29 22.567v-.529a.66.66 0 0 0-1.319 0v.53a2.586 2.586 0 0 0-1.93 2.494 2.593 2.593 0 0 0 2.59 2.59 2.593 2.593 0 0 0 2.59-2.59c0-1.2-.823-2.201-1.93-2.495Zm-.66 3.766a1.274 1.274 0 0 1-1.272-1.273c0-.702.571-1.273 1.273-1.273.701 0 1.273.572 1.273 1.273a1.276 1.276 0 0 1-1.273 1.273ZM38.179 18.82v.529a2.586 2.586 0 0 0-1.93 2.493 2.593 2.593 0 0 0 2.59 2.59 2.593 2.593 0 0 0 2.59-2.59c0-1.198-.823-2.2-1.93-2.493v-.529a.66.66 0 0 0-1.32 0Zm1.93 3.022c0 .702-.57 1.273-1.272 1.273a1.274 1.274 0 0 1-1.273-1.273c0-.702.571-1.273 1.273-1.273a1.276 1.276 0 0 1 1.273 1.273Zm-18.951 2.475a2.55 2.55 0 0 0 2.547-2.547 2.541 2.541 0 0 0-1.888-2.45v-.506a.66.66 0 0 0-1.319 0v.507a2.543 2.543 0 0 0-1.888 2.449 2.55 2.55 0 0 0 2.548 2.547Zm0-3.778c.677 0 1.23.551 1.23 1.23 0 .678-.55 1.231-1.23 1.231-.678 0-1.23-.55-1.23-1.23 0-.678.552-1.23 1.23-1.23Zm17.538 10.845v-.681a.66.66 0 0 0-1.319 0v.681a2.88 2.88 0 0 0-2.221 2.797 2.885 2.885 0 0 0 2.88 2.881 2.885 2.885 0 0 0 2.882-2.88 2.88 2.88 0 0 0-2.222-2.798Zm-.66 4.36c-.86 0-1.562-.702-1.562-1.563 0-.86.702-1.562 1.563-1.562a1.561 1.561 0 1 1 0 3.124ZM58.7 59.57c-1.842-1.265-5.825-2.312-11.122-3.03a3.55 3.55 0 0 0 .442-1.719 3.58 3.58 0 0 0-4.994-3.281 4.333 4.333 0 0 0-.708-1.042l.402-.494a.66.66 0 0 0-1.022-.833l-.402.495a4.418 4.418 0 0 0-2.712-.603 4.413 4.413 0 0 0-2.994 1.612 4.453 4.453 0 0 0-.48 4.896c-.87-.026-1.754-.046-2.646-.058l-.155-13.431c7.976-.857 14.144-6.285 14.144-12.836 0-2.343-.804-4.633-2.328-6.65a9.383 9.383 0 0 0 .533-3.108c0-2.82-1.289-5.513-3.637-7.628a7.205 7.205 0 0 0 .325-2.131c0-4.938-5.044-8.955-11.247-8.955-6.2 0-11.248 4.017-11.248 8.955 0 .714.109 1.43.326 2.131-2.348 2.113-3.637 4.808-3.637 7.628 0 1.056.179 2.1.533 3.109-1.524 2.014-2.329 4.304-2.329 6.649 0 6.522 6.113 11.93 14.037 12.825l-.155 13.443c-1.882.028-3.712.089-5.48.18.518-.745.821-1.648.821-2.62a4.614 4.614 0 0 0-3.953-4.559v-.691a.66.66 0 0 0-1.319 0v.691a4.614 4.614 0 0 0-3.952 4.558c0 1.23.486 2.347 1.274 3.175-6.49.708-11.41 1.874-13.52 3.324a.66.66 0 0 0-.17.916.66.66 0 0 0 .915.17c.271-.188.6-.367.979-.544 4.214-1.968 14.844-3.299 26.872-3.299 12.027 0 22.657 1.331 26.871 3.3.378.176.708.357.98.542.299.207.711.131.916-.169a.65.65 0 0 0-.16-.918Zm-41.72-3.517a3.29 3.29 0 0 1-1.912-2.98 3.3 3.3 0 0 1 2.634-3.226v.687a.66.66 0 0 0 1.319 0v-.687a3.292 3.292 0 0 1 1.18 5.957c-1.104.072-2.18.155-3.221.25Zm15.065-37.03 2.162-1.967a.189.189 0 0 1 .261.008l.447.446a.188.188 0 0 1 .006.262l-2.854 3.134-.022-1.884Zm4.482 8.199-4.333 4.689-.028-2.468 3.42-3.162a.189.189 0 0 1 .261.006l.674.675a.182.182 0 0 1 .006.26Zm-21.459 2.024c0-2.155.784-4.272 2.27-6.12a.655.655 0 0 0 .099-.655 8.056 8.056 0 0 1-.576-2.982c0-2.56 1.247-5.017 3.511-6.917a.659.659 0 0 0 .193-.736 5.989 5.989 0 0 1-.392-2.105c0-4.212 4.453-7.638 9.928-7.638 5.475 0 9.929 3.426 9.929 7.638 0 .702-.133 1.412-.392 2.107a.66.66 0 0 0 .193.736c2.264 1.902 3.51 4.36 3.51 6.917a8.072 8.072 0 0 1-.575 2.982.657.657 0 0 0 .1.653c1.486 1.85 2.27 3.967 2.27 6.12 0 5.841-5.587 10.691-12.841 11.515l-.08-6.935 5.278-5.71a1.503 1.503 0 0 0-.04-2.089l-.674-.675a1.499 1.499 0 0 0-2.087-.04l-2.546 2.354-.056-4.828 3.804-4.18a1.503 1.503 0 0 0-.048-2.079l-.447-.446a1.503 1.503 0 0 0-2.079-.048l-1.294 1.178-.06-5.296a1.923 1.923 0 0 0-1.917-1.894v-.002a1.923 1.923 0 0 0-1.916 1.894l-.06 5.296-1.295-1.178a1.505 1.505 0 0 0-2.08.048l-.445.446a1.503 1.503 0 0 0-.049 2.08l3.804 4.181-.056 4.828-2.545-2.353a1.505 1.505 0 0 0-2.09.04l-.673.676a1.502 1.502 0 0 0-.04 2.09l5.278 5.71-.08 6.92c-7.203-.86-12.734-5.69-12.734-11.503Zm12.985-10.223-.022 1.881-2.853-3.134a.188.188 0 0 1 .006-.261l.446-.447a.19.19 0 0 1 .261-.008l2.162 1.969Zm-.12 10.416-.029 2.47-4.333-4.69a.188.188 0 0 1 .006-.26l.674-.674a.198.198 0 0 1 .134-.056c.047 0 .093.016.13.05l3.417 3.16Zm2.17 26.058c-.385 0-.77.002-1.154.004l.501-43.522a.599.599 0 0 1 1.196 0l.503 43.522c-.348-.002-.696-.004-1.045-.004Zm6.684.137a3.097 3.097 0 0 1-.173-4.126 3.1 3.1 0 0 1 3.836-.802l-.39.476a.66.66 0 0 0 1.021.833l.392-.481a3.11 3.11 0 0 1 .67 1.633 3.107 3.107 0 0 1-1.1 2.706 153.967 153.967 0 0 0-4.256-.24Zm5.903.373c.601-.868.874-1.91.766-2.971-.008-.072-.022-.143-.032-.215a2.214 2.214 0 0 1 1.021-.256 2.261 2.261 0 0 1 2.258 2.258c0 .591-.233 1.128-.607 1.53a100.41 100.41 0 0 0-3.406-.346Z" fill="#1529A0"/><path d="M24.468 12.31a2.593 2.593 0 0 0 2.59-2.59 2.588 2.588 0 0 0-1.93-2.495v-.529a.66.66 0 0 0-1.319 0v.529a2.586 2.586 0 0 0-1.93 2.495 2.593 2.593 0 0 0 2.59 2.59Zm0-3.863c.702 0 1.273.571 1.273 1.273s-.57 1.273-1.273 1.273a1.274 1.274 0 0 1-1.272-1.273c0-.702.57-1.273 1.272-1.273Zm11.638 4.196a2.593 2.593 0 0 0 2.59-2.59 2.588 2.588 0 0 0-1.93-2.494v-.53a.66.66 0 0 0-1.32 0v.53a2.586 2.586 0 0 0-1.93 2.495 2.593 2.593 0 0 0 2.59 2.59Zm0-3.862c.701 0 1.273.571 1.273 1.273 0 .701-.572 1.272-1.273 1.272a1.274 1.274 0 0 1-1.273-1.272c0-.702.571-1.273 1.273-1.273Zm-14.29 22.567v-.529a.66.66 0 0 0-1.319 0v.53a2.586 2.586 0 0 0-1.93 2.494 2.593 2.593 0 0 0 2.59 2.59 2.593 2.593 0 0 0 2.59-2.59c0-1.2-.823-2.201-1.93-2.495Zm-.66 3.766a1.274 1.274 0 0 1-1.272-1.273c0-.702.571-1.273 1.273-1.273.701 0 1.273.572 1.273 1.273a1.276 1.276 0 0 1-1.273 1.273ZM38.179 18.82v.529a2.586 2.586 0 0 0-1.93 2.493 2.593 2.593 0 0 0 2.59 2.59 2.593 2.593 0 0 0 2.59-2.59c0-1.198-.823-2.2-1.93-2.493v-.529a.66.66 0 0 0-1.32 0Zm1.93 3.022c0 .702-.57 1.273-1.272 1.273a1.274 1.274 0 0 1-1.273-1.273c0-.702.571-1.273 1.273-1.273a1.276 1.276 0 0 1 1.273 1.273Zm-18.951 2.475a2.55 2.55 0 0 0 2.547-2.547 2.541 2.541 0 0 0-1.888-2.45v-.506a.66.66 0 0 0-1.319 0v.507a2.543 2.543 0 0 0-1.888 2.449 2.55 2.55 0 0 0 2.548 2.547Zm0-3.778c.677 0 1.23.551 1.23 1.23 0 .678-.55 1.231-1.23 1.231-.678 0-1.23-.55-1.23-1.23 0-.678.552-1.23 1.23-1.23Zm17.538 10.845v-.681a.66.66 0 0 0-1.319 0v.681a2.88 2.88 0 0 0-2.221 2.797 2.885 2.885 0 0 0 2.88 2.881 2.885 2.885 0 0 0 2.882-2.88 2.88 2.88 0 0 0-2.222-2.798Zm-.66 4.36c-.86 0-1.562-.702-1.562-1.563 0-.86.702-1.562 1.563-1.562a1.561 1.561 0 1 1 0 3.124ZM58.7 59.57c-1.842-1.265-5.825-2.312-11.122-3.03a3.55 3.55 0 0 0 .442-1.719 3.58 3.58 0 0 0-4.994-3.281 4.333 4.333 0 0 0-.708-1.042l.402-.494a.66.66 0 0 0-1.022-.833l-.402.495a4.418 4.418 0 0 0-2.712-.603 4.413 4.413 0 0 0-2.994 1.612 4.453 4.453 0 0 0-.48 4.896c-.87-.026-1.754-.046-2.646-.058l-.155-13.431c7.976-.857 14.144-6.285 14.144-12.836 0-2.343-.804-4.633-2.328-6.65a9.383 9.383 0 0 0 .533-3.108c0-2.82-1.289-5.513-3.637-7.628a7.205 7.205 0 0 0 .325-2.131c0-4.938-5.044-8.955-11.247-8.955-6.2 0-11.248 4.017-11.248 8.955 0 .714.109 1.43.326 2.131-2.348 2.113-3.637 4.808-3.637 7.628 0 1.056.179 2.1.533 3.109-1.524 2.014-2.329 4.304-2.329 6.649 0 6.522 6.113 11.93 14.037 12.825l-.155 13.443c-1.882.028-3.712.089-5.48.18.518-.745.821-1.648.821-2.62a4.614 4.614 0 0 0-3.953-4.559v-.691a.66.66 0 0 0-1.319 0v.691a4.614 4.614 0 0 0-3.952 4.558c0 1.23.486 2.347 1.274 3.175-6.49.708-11.41 1.874-13.52 3.324a.66.66 0 0 0-.17.916.66.66 0 0 0 .915.17c.271-.188.6-.367.979-.544 4.214-1.968 14.844-3.299 26.872-3.299 12.027 0 22.657 1.331 26.871 3.3.378.176.708.357.98.542.299.207.711.131.916-.169a.65.65 0 0 0-.16-.918Zm-41.72-3.517a3.29 3.29 0 0 1-1.912-2.98 3.3 3.3 0 0 1 2.634-3.226v.687a.66.66 0 0 0 1.319 0v-.687a3.292 3.292 0 0 1 1.18 5.957c-1.104.072-2.18.155-3.221.25Zm15.065-37.03 2.162-1.967a.189.189 0 0 1 .261.008l.447.446a.188.188 0 0 1 .006.262l-2.854 3.134-.022-1.884Zm4.482 8.199-4.333 4.689-.028-2.468 3.42-3.162a.189.189 0 0 1 .261.006l.674.675a.182.182 0 0 1 .006.26Zm-21.459 2.024c0-2.155.784-4.272 2.27-6.12a.655.655 0 0 0 .099-.655 8.056 8.056 0 0 1-.576-2.982c0-2.56 1.247-5.017 3.511-6.917a.659.659 0 0 0 .193-.736 5.989 5.989 0 0 1-.392-2.105c0-4.212 4.453-7.638 9.928-7.638 5.475 0 9.929 3.426 9.929 7.638 0 .702-.133 1.412-.392 2.107a.66.66 0 0 0 .193.736c2.264 1.902 3.51 4.36 3.51 6.917a8.072 8.072 0 0 1-.575 2.982.657.657 0 0 0 .1.653c1.486 1.85 2.27 3.967 2.27 6.12 0 5.841-5.587 10.691-12.841 11.515l-.08-6.935 5.278-5.71a1.503 1.503 0 0 0-.04-2.089l-.674-.675a1.499 1.499 0 0 0-2.087-.04l-2.546 2.354-.056-4.828 3.804-4.18a1.503 1.503 0 0 0-.048-2.079l-.447-.446a1.503 1.503 0 0 0-2.079-.048l-1.294 1.178-.06-5.296a1.923 1.923 0 0 0-1.917-1.894v-.002a1.923 1.923 0 0 0-1.916 1.894l-.06 5.296-1.295-1.178a1.505 1.505 0 0 0-2.08.048l-.445.446a1.503 1.503 0 0 0-.049 2.08l3.804 4.181-.056 4.828-2.545-2.353a1.505 1.505 0 0 0-2.09.04l-.673.676a1.502 1.502 0 0 0-.04 2.09l5.278 5.71-.08 6.92c-7.203-.86-12.734-5.69-12.734-11.503Zm12.985-10.223-.022 1.881-2.853-3.134a.188.188 0 0 1 .006-.261l.446-.447a.19.19 0 0 1 .261-.008l2.162 1.969Zm-.12 10.416-.029 2.47-4.333-4.69a.188.188 0 0 1 .006-.26l.674-.674a.198.198 0 0 1 .134-.056c.047 0 .093.016.13.05l3.417 3.16Zm2.17 26.058c-.385 0-.77.002-1.154.004l.501-43.522a.599.599 0 0 1 1.196 0l.503 43.522c-.348-.002-.696-.004-1.045-.004Zm6.684.137a3.097 3.097 0 0 1-.173-4.126 3.1 3.1 0 0 1 3.836-.802l-.39.476a.66.66 0 0 0 1.021.833l.392-.481a3.11 3.11 0 0 1 .67 1.633 3.107 3.107 0 0 1-1.1 2.706 153.967 153.967 0 0 0-4.256-.24Zm5.903.373c.601-.868.874-1.91.766-2.971-.008-.072-.022-.143-.032-.215a2.214 2.214 0 0 1 1.021-.256 2.261 2.261 0 0 1 2.258 2.258c0 .591-.233 1.128-.607 1.53a100.41 100.41 0 0 0-3.406-.346Z" stroke="#1529A0" stroke-width=".549" mask="url(#hb)"/></g><defs><clipPath id="ha"><path fill="#fff" transform="translate(.597 .775)" d="M0 0h59v60H0z"/></clipPath></defs></symbol><symbol fill="none" viewBox="0 0 80 81" id="i-service-cost" xmlns="http://www.w3.org/2000/svg"><path d="M22.207 21.217a9.539 9.539 0 0 0 6.743-2.788 9.532 9.532 0 0 0 .003-13.478 9.525 9.525 0 0 0-13.476.005 9.522 9.522 0 0 0 .005 13.469 9.549 9.549 0 0 0 6.726 2.793Zm0-15.048a5.528 5.528 0 1 1 0 11.055 5.528 5.528 0 0 1 0-11.055Zm-16.206 26a8.731 8.731 0 0 1 2.139-6.828 8.732 8.732 0 0 1 6.523-2.932h2.474a2.315 2.315 0 0 1 1.823.879l3.2 3.999 3.202-4h-.003a2.337 2.337 0 0 1 1.841-.878h3.2c1.285 0 2.53.447 3.521 1.265l7.063 5.832 7.017-5.505a5.54 5.54 0 1 1 6.736 8.799l-10.369 8.168a5.533 5.533 0 0 1-6.95-.08l-3.465-2.864-3.8 29.08a2.015 2.015 0 1 1-4-.52l4.304-32.657a2 2 0 0 1 1.25-1.599 2.007 2.007 0 0 1 2.005.32L40 37.809c.572.43 1.358.43 1.93 0l10.4-8.19v-.003a1.602 1.602 0 0 0 .478-2.087 1.542 1.542 0 0 0-1.32-.745c-.342 0-.674.115-.943.33l-8.313 6.543c-.733.59-1.777.59-2.512 0l-8.31-6.897a1.522 1.522 0 0 0-1.01-.352h-2.399l-3.616 4.52v.002a2.817 2.817 0 0 1-4.402 0l-3.654-4.522h-1.665a4.734 4.734 0 0 0-3.523 1.58 4.718 4.718 0 0 0-1.172 3.677l1.95 14.68a3.709 3.709 0 0 0 2.4 3.103 2 2 0 0 1 1.297 1.601l3.296 24.121v-.002c.021.327.29.581.617.586h5.225-.003a21.155 21.155 0 0 0 21.121-20.569l-1.455 1.455a2 2 0 0 1-2.817-2.822l4.921-4.922a2.003 2.003 0 0 1 2.832 0l4.92 4.92v.002a2.004 2.004 0 0 1 0 2.832 2.004 2.004 0 0 1-2.832 0l-1.553-1.553a25.146 25.146 0 0 1-25.127 24.67h-5.224a4.606 4.606 0 0 1-4.585-4.087l-3.135-23a7.657 7.657 0 0 1-3.872-5.847L6 32.17Zm51.04 8.729a7.879 7.879 0 0 1 6.511-7.761v-1.905a2 2 0 0 1 4 0v1.937a8.49 8.49 0 0 1 5.16 3.664 2 2 0 1 1-3.359 2.168 4.507 4.507 0 0 0-3.801-2.073c-2.176 0-4.512 1.24-4.512 4 0 .712 0 2.888 4.96 3.998h.072c6.953 1.6 8 5.64 8 7.903v.003a7.88 7.88 0 0 1-6.51 7.761v1.904a2.001 2.001 0 0 1-4.002 0V60.57a8.494 8.494 0 0 1-5.855-4.983 2 2 0 0 1 2.605-2.669c.498.213.889.618 1.082 1.123a4.512 4.512 0 0 0 4.167 2.769c2.175 0 4.512-1.24 4.512-3.999 0-.713 0-2.888-4.961-3.999h-.07c-6.959-1.626-8-5.65-8-7.913Z" fill="#76B228"/></symbol><symbol fill="none" viewBox="0 0 80 81" id="i-service-health" xmlns="http://www.w3.org/2000/svg"><path d="M43.064 40.066a8.173 8.173 0 0 0 7.541-5.05 8.172 8.172 0 0 0-1.777-8.898 8.167 8.167 0 0 0-13.94 5.779 8.185 8.185 0 0 0 8.176 8.169Zm0-12.344a4.165 4.165 0 0 1 3.85 2.573 4.168 4.168 0 1 1-8.018 1.594 4.175 4.175 0 0 1 4.168-4.16v-.007Zm-32.8 25.137 2.937.966v9.12a7.001 7.001 0 0 0 6.993 6.992h9.248l1.816 6.398-.002.003a4.8 4.8 0 0 0 5.896 3.279l28.762-8.247a4.8 4.8 0 0 0 3.279-5.896L65.24 51.658a29.478 29.478 0 0 0 7.442-21.601 29.787 29.787 0 0 0-29.6-27.927h-.088a29.763 29.763 0 0 0-21.045 8.716 29.762 29.762 0 0 0-8.715 21.045c.002 1.609-.335 3.2-.991 4.67L7.64 46.884a4.408 4.408 0 0 0 2.641 5.984l-.018-.01Zm1.009-4.353 4.584-10.28a15.372 15.372 0 0 0 1.343-6.297A25.763 25.763 0 0 1 42.976 6.17h.071a25.755 25.755 0 0 1 25.74 25.418 25.746 25.746 0 0 1-7.187 18.18 1.998 1.998 0 0 0-.479 1.937l4.224 14.865a.8.8 0 0 1-.545.967l-28.742 8.2a.799.799 0 0 1-.952-.526l-2.234-7.842a2 2 0 0 0-1.919-1.448H20.209a2.99 2.99 0 0 1-2.991-2.99V52.385a2.006 2.006 0 0 0-1.37-1.897l-4.304-1.423a.407.407 0 0 1-.247-.552l-.024-.008Zm13.456-7.657 1.4 2.4a4.528 4.528 0 0 0 5.48 1.992l1.76-.64a15.861 15.861 0 0 0 3.472 2.008l.32 1.84a4.527 4.527 0 0 0 4.463 3.753h2.8a4.532 4.532 0 0 0 4.465-3.752l.32-1.841a15.926 15.926 0 0 0 3.472-2.007l1.76.64a4.528 4.528 0 0 0 5.56-1.968l1.398-2.4a4.525 4.525 0 0 0-1.015-5.745l-1.434-1.2h.003c.166-1.33.166-2.672 0-4l1.433-1.201h-.002a4.522 4.522 0 0 0 1.015-5.742L60 20.586a4.528 4.528 0 0 0-5.48-1.992l-1.76.64a15.875 15.875 0 0 0-3.473-2.01l-.32-1.848v.002a4.525 4.525 0 0 0-4.462-3.752h-2.8a4.525 4.525 0 0 0-4.463 3.752l-.328 1.848-.002-.002a15.874 15.874 0 0 0-3.472 2.01l-1.76-.64a4.525 4.525 0 0 0-5.479 1.992l-1.398 2.4H24.8a4.528 4.528 0 0 0 1.016 5.742L27.2 29.89a16.118 16.118 0 0 0 0 3.999l-1.433 1.201h.002a4.526 4.526 0 0 0-1.008 5.76h-.032Zm6.568-6.543v-.002a12.126 12.126 0 0 1 0-4.8 2.004 2.004 0 0 0-.672-1.936l-2.304-1.936a.533.533 0 0 1-.12-.679l1.4-2.4a.537.537 0 0 1 .649-.232l2.831 1.033v-.002a1.99 1.99 0 0 0 2.015-.384 11.917 11.917 0 0 1 4.17-2.4 1.998 1.998 0 0 0 1.335-1.552l.52-2.969v.002a.532.532 0 0 1 .527-.439h2.8a.532.532 0 0 1 .528.44l.52 2.968v-.002c.127.725.64 1.32 1.336 1.553a11.942 11.942 0 0 1 4.17 2.4 1.99 1.99 0 0 0 2.014.383l2.832-1.033v.002a.537.537 0 0 1 .65.232l1.398 2.4a.533.533 0 0 1-.12.679l-2.304 1.936a2.004 2.004 0 0 0-.672 1.936c.32 1.585.32 3.218 0 4.8a2 2 0 0 0 .672 1.936l2.304 1.929c.2.168.252.454.12.68l-1.399 2.4a.54.54 0 0 1-.65.233l-2.831-1.033a2.007 2.007 0 0 0-2.014.383 11.903 11.903 0 0 1-4.17 2.4 2.006 2.006 0 0 0-1.336 1.553l-.52 2.969a.537.537 0 0 1-.527.439h-2.8a.537.537 0 0 1-.528-.44l-.52-2.968a2.006 2.006 0 0 0-1.335-1.553 11.883 11.883 0 0 1-4.17-2.4 1.996 1.996 0 0 0-2.014-.383l-2.832 1.033a.54.54 0 0 1-.65-.232l-1.399-2.4a.536.536 0 0 1 .12-.681l2.304-1.936a2.002 2.002 0 0 0 .696-1.93l-.024.003Z" fill="#76B228"/></symbol><symbol fill="none" viewBox="0 0 81 81" id="i-service-risk" xmlns="http://www.w3.org/2000/svg"><path d="M69.94 10.842a4.714 4.714 0 0 0-5.656-3.474l-26.128 6.12a2.002 2.002 0 0 0 .92 3.897l26.128-6.153a.699.699 0 0 1 .848.528l9.599 40.913a.709.709 0 0 1-.085.535.707.707 0 0 1-.442.312L25.387 65.241a1.999 1.999 0 0 0 .457 3.943c.156 0 .312-.02.464-.056l5.6-1.32v.002c.078.034.159.063.24.087L57.02 74.57a4.711 4.711 0 0 0 5.742-3.37L65.7 59.859l10.351-2.4v-.002a4.708 4.708 0 0 0 3.504-5.654l-9.614-40.96Zm-11.047 59.35a.693.693 0 0 1-.33.433.682.682 0 0 1-.52.08L40.1 65.888l21.216-5-2.422 9.304ZM51.35 35.368a3.122 3.122 0 0 0 2.351.425l8.001-1.753a3.127 3.127 0 0 0 2.4-3.711 11.318 11.318 0 0 0-13.489-8.64 3.127 3.127 0 0 0-2.4 3.71l1.753 8.001a3.09 3.09 0 0 0 1.384 1.968Zm5.601-8.799h-.002a7.265 7.265 0 0 1 2.961 3.736L53.7 31.689l-1.367-6.233a7.263 7.263 0 0 1 4.639 1.113h-.022Zm-11.458 3.072a2.608 2.608 0 0 0-2.048-.271 12.512 12.512 0 0 0-8.354 7.893 12.525 12.525 0 0 0 1.604 11.384 12.529 12.529 0 0 0 10.215 5.273c.69.008 1.382-.043 2.063-.15a12.581 12.581 0 0 0 10.273-14.28c-.12-.701-.517-1.321-1.103-1.722a2.658 2.658 0 0 0-2.058-.4l-7.68 1.68-1.688-7.678a2.644 2.644 0 0 0-1.223-1.729ZM48.044 43.2l7.344-1.6a8.522 8.522 0 0 1-13.11 7.01 8.52 8.52 0 0 1 .871-14.841l1.6 7.344c.155.715.59 1.337 1.208 1.733a2.771 2.771 0 0 0 2.08.371l.007-.017ZM12.54 72.52a3.8 3.8 0 0 0 2.463-.906 30.77 30.77 0 0 0 10-16.142l8.448-35.488a8.887 8.887 0 0 0-1.058-6.805 8.886 8.886 0 0 0-5.598-4.01A9.061 9.061 0 0 0 16.1 15.92l-.608 2.456-.351 1.487-4.185-1.04v.002a3.884 3.884 0 0 0-4.697 2.84l-4.104 16.52a2.002 2.002 0 0 0 1.458 2.4 2 2 0 0 0 2.415-1.465L10.1 22.723l4.12 1.023-6.496 27.463a30.773 30.773 0 0 0 1.289 18.928 3.79 3.79 0 0 0 3.518 2.4l.01-.015Zm-.928-20.351 7.783-32.8.608-2.449a5.04 5.04 0 0 1 5.896-3.816 4.894 4.894 0 0 1 3.655 5.967l-8.44 35.498a26.775 26.775 0 0 1-8.486 13.816 26.813 26.813 0 0 1-1.016-16.216Z" fill="#76B228"/></symbol><symbol fill="none" viewBox="0 0 80 81" id="i-service-time" xmlns="http://www.w3.org/2000/svg"><path d="M48.447 29.233a2 2 0 0 1-2-2v-3.305a2 2 0 0 1 4.002 0v3.305a1.999 1.999 0 0 1-2.002 2Zm-2 31.089v3.303a2 2 0 0 0 4.002 0v-3.303a2.002 2.002 0 1 0-4.001 0Zm21.849-14.553a2 2 0 0 0 0-4h-3.303a1.999 1.999 0 1 0 0 3.999h3.303Zm-9.6 8.288a2.002 2.002 0 0 0 0 2.832l2.337 2.337a2.004 2.004 0 0 0 2.832 0 2.004 2.004 0 0 0 0-2.832l-2.336-2.337a2.002 2.002 0 0 0-2.8.008l-.032-.008Zm-21.984-20a2 2 0 0 0 1.416-3.415l-2.303-2.312a2 2 0 0 0-2.832 0 2 2 0 0 0 0 2.832l2.337 2.336-.003-.002c.379.378.892.588 1.426.586l-.041-.025Zm11.696 3.44a6.19 6.19 0 0 1 2.776.657l9.01-8.952a2.004 2.004 0 0 1 2.831 0 2.004 2.004 0 0 1 0 2.832l-8.977 8.935a6.258 6.258 0 0 1-8.919 8.079 6.258 6.258 0 0 1 3.319-11.568l-.04.017Zm-2.263 6.265c0 .915.552 1.74 1.397 2.09a2.265 2.265 0 1 0 .867-4.355 2.265 2.265 0 0 0-2.225 2.28l-.039-.015ZM72.13 14.009a2.004 2.004 0 0 0-2.832 0 2 2 0 0 0 0 2.832l1.6 1.599-3.248 3.33a29.113 29.113 0 0 0-17.2-7.2V8.818h5.784a2.001 2.001 0 0 0 0-4.002H40.664a2 2 0 0 0 0 4.002h5.784v5.752a29.217 29.217 0 0 0-23.791 15.39 2 2 0 1 0 3.528 1.887 25.243 25.243 0 0 1 13.962-11.899 25.244 25.244 0 0 1 18.335.706 25.23 25.23 0 0 1-16.201 47.61 2.013 2.013 0 0 0-.97 3.905 29.247 29.247 0 0 0 23.63-4.18 29.226 29.226 0 0 0 12.54-20.46 29.23 29.23 0 0 0-7-22.952l3.28-3.28 1.598 1.6c.784.781 2.051.781 2.832 0a2 2 0 0 0 0-2.832l-6.062-6.056Zm-69.3 45.88 1.455-1.215a16.412 16.412 0 0 1 0-4.065L2.83 53.393a4.547 4.547 0 0 1-1.016-5.769l1.385-2.439a4.55 4.55 0 0 1 5.503-2l1.784.648a15.877 15.877 0 0 1 3.545-2.063l.327-1.873a4.553 4.553 0 0 1 4.488-3.728h2.817a4.55 4.55 0 0 1 4.487 3.767l.328 1.834A15.897 15.897 0 0 1 29.99 43.8l1.784-.647h-.002a4.55 4.55 0 0 1 5.513 2l1.408 2.438a4.556 4.556 0 0 1-1.015 5.77l-1.455 1.215h-.003c.171 1.35.171 2.715 0 4.063l1.455 1.216.003.002a4.55 4.55 0 0 1 1.023 5.767l-1.409 2.439v.002a4.552 4.552 0 0 1-5.503 2l-1.785-.647v-.003a15.89 15.89 0 0 1-3.51 2.034l-.328 1.863h-.002a4.548 4.548 0 0 1-4.487 3.767h-2.832a4.55 4.55 0 0 1-4.488-3.767l-.327-1.873a15.9 15.9 0 0 1-3.513-2.031l-1.785.647a4.55 4.55 0 0 1-5.534-1.95l-1.392-2.442A4.549 4.549 0 0 1 2.83 59.89Zm2.568-9.599 2.33 1.954-.003-.003c.564.474.823 1.216.674 1.936a12.262 12.262 0 0 0 0 4.864c.149.72-.11 1.464-.674 1.936L5.397 62.96a.552.552 0 0 0-.129.703l1.409 2.44v.002a.548.548 0 0 0 .671.247l2.856-1.04a2.002 2.002 0 0 1 2.017.385 12.006 12.006 0 0 0 4.21 2.4 1.999 1.999 0 0 1 1.335 1.55l.527 2.993c.046.267.28.46.552.457h2.817a.554.554 0 0 0 .552-.464l.527-2.993a2.005 2.005 0 0 1 1.336-1.553 11.97 11.97 0 0 0 4.199-2.4 2.002 2.002 0 0 1 2.017-.383l2.856 1.04a.552.552 0 0 0 .671-.249l1.377-2.432a.55.55 0 0 0-.13-.703l-2.27-1.953a1.995 1.995 0 0 1-.671-1.936 12.262 12.262 0 0 0 0-4.863 2 2 0 0 1 .671-1.929l2.33-1.953-.003.003a.556.556 0 0 0 .13-.706l-1.41-2.439a.552.552 0 0 0-.67-.249l-2.857 1.04a1.996 1.996 0 0 1-2.017-.383 11.998 11.998 0 0 0-4.206-2.4 1.997 1.997 0 0 1-1.338-1.553l-.527-2.993v.003a.558.558 0 0 0-.552-.457h-2.832a.552.552 0 0 0-.552.457l-.527 2.993v-.003a1.998 1.998 0 0 1-1.336 1.553 12.012 12.012 0 0 0-4.209 2.4c-.55.49-1.325.637-2.016.383l-2.847-1.04a.555.555 0 0 0-.674.25l-1.406 2.438a.551.551 0 0 0 .12.706v-.04Zm6.6 6.35a8.258 8.258 0 0 1 14.095-5.837A8.253 8.253 0 0 1 27.88 59.8a8.253 8.253 0 0 1-7.627 5.098 8.266 8.266 0 0 1-8.257-8.257Zm4.001 0a4.256 4.256 0 1 0 8.511.004A4.256 4.256 0 0 0 16 56.64Z" fill="#76B228"/></symbol></svg>